<svg
          class="logo_fair"
          xmlns:dc="http://purl.org/dc/elements/1.1/"
          xmlns:cc="http://creativecommons.org/ns#"
          xmlns:rdf="http://www.w3.org/1999/02/22-rdf-syntax-ns#"
          xmlns:svg="http://www.w3.org/2000/svg"
          xmlns="http://www.w3.org/2000/svg"
          xmlns:sodipodi="http://sodipodi.sourceforge.net/DTD/sodipodi-0.dtd"
          xmlns:inkscape="http://www.inkscape.org/namespaces/inkscape"
          xml:space="preserve"
          width="150px"
          height="50px"
          version="1.1"
          style="clip-rule:evenodd;fill-rule:evenodd;image-rendering:optimizeQuality;shape-rendering:geometricPrecision;text-rendering:geometricPrecision"
          viewBox="0 0 26236.151 7532.9025"
          id="svg23"
          sodipodi:docname="logo.svg"
          inkscape:version="1.0 (4035a4fb49, 2020-05-01)"><metadata
          id="metadata27"><rdf:RDF><cc:Work
              rdf:about=""><dc:format>image/svg+xml</dc:format><dc:type
                rdf:resource="http://purl.org/dc/dcmitype/StillImage" /><dc:title></dc:title></cc:Work></rdf:RDF></metadata><sodipodi:namedview
          inkscape:document-rotation="0"
          pagecolor="#ffffff"
          bordercolor="#666666"
          borderopacity="1"
          objecttolerance="10"
          gridtolerance="10"
          guidetolerance="10"
          inkscape:pageopacity="0"
          inkscape:pageshadow="2"
          inkscape:window-width="1366"
          inkscape:window-height="705"
          id="namedview25"
          showgrid="false"
          inkscape:zoom="0.47930335"
          inkscape:cx="301.39198"
          inkscape:cy="48.607085"
          inkscape:window-x="-8"
          inkscape:window-y="-8"
          inkscape:window-maximized="1"
          inkscape:current-layer="Capa_x0020_1" />
          <defs
            id="defs4">
            <style
            type="text/css"
            id="style2">
            <![CDATA[
              .str0 {stroke:#10846F;stroke-width:150;stroke-miterlimit:22.9256}
              .fil2 {fill:none}
              .fil3 {fill:white}
              .fil1 {fill:#713C8F;fill-rule:nonzero}
              .fil0 {fill:#713C8F}
              .fil4 {fill:#10846F}
            ]]>
            </style>
          </defs>
          <g
            id="Capa_x0020_1"
            transform="translate(-1719.73,-5946.776)">
            <metadata
            id="CorelCorpID_0Corel-Layer" />
            <path
            class="fil0"
            d="m 8292.6,10195.38 -88.59,1277.5 c -3.11,24.87 -5.44,42.74 -6.99,53.62 -1.55,10.88 -16.33,16.32 -44.3,16.32 h -256.43 c -174.07,0 -298.39,-34.19 -372.99,-102.57 -74.6,-68.38 -111.89,-166.29 -111.89,-293.74 0,-62.16 4.65,-168.62 13.98,-319.37 9.33,-150.75 21.76,-322.48 37.3,-515.2 15.54,-192.71 31.09,-396.3 46.62,-610.76 15.54,-214.48 31.08,-416.52 46.63,-606.12 15.54,-189.6 27.97,-355.9 37.3,-498.88 9.33,-142.98 13.98,-240.89 13.98,-293.72 0,-46.63 24.87,-69.94 74.6,-69.94 h 1641.16 c 18.65,0 35.75,4.66 51.29,13.98 15.54,9.33 23.31,26.42 23.31,51.29 l -18.64,275.08 c -6.22,93.25 -31.87,168.62 -76.94,226.13 -45.07,57.51 -137.54,86.25 -277.41,86.25 h -643.41 l -46.63,657.4 h 662.07 c 18.64,0 35.74,4.66 51.28,13.99 15.54,9.32 23.31,26.42 23.31,51.29 l -18.64,275.08 c -6.22,93.24 -31.86,168.62 -76.94,226.12 -45.07,57.5 -137.53,86.25 -277.41,86.25 z m 2601.61,-1962.86 c 77.71,0 142.21,14.76 193.49,44.29 51.3,29.53 94.03,68.38 128.22,116.56 34.19,48.17 62.16,103.35 83.92,165.51 21.76,62.17 40.41,125.88 55.95,191.16 124.33,503.54 226.9,918.5 307.72,1244.86 80.82,326.37 144.54,589.8 191.16,790.28 46.63,200.48 79.26,348.9 97.91,445.26 18.64,96.35 27.97,163.19 27.97,200.48 0,43.51 -10.1,73.05 -30.3,88.59 -20.21,15.53 -52.07,23.31 -95.58,23.31 h -237.79 c -133.65,0 -240.11,-16.32 -319.36,-48.96 -79.27,-32.64 -139.88,-80.04 -181.84,-142.2 -41.96,-62.17 -72.26,-137.54 -90.92,-226.13 -18.64,-88.58 -34.19,-188.82 -46.62,-300.72 h -811.26 l -153.86,643.41 c -15.54,49.73 -51.29,74.6 -107.24,74.6 h -247.1 c -49.73,0 -101.01,-5.44 -153.86,-16.32 -52.84,-10.88 -100.24,-28.75 -142.21,-53.62 -41.95,-24.87 -76.92,-56.72 -104.89,-95.58 -27.99,-38.85 -41.97,-86.25 -41.97,-142.19 0,-68.39 21.76,-180.28 65.28,-335.7 43.51,-155.41 98.68,-331.81 165.51,-529.18 66.83,-197.37 141.42,-404.08 223.8,-620.1 82.37,-216.02 162.4,-420.39 240.11,-613.11 77.7,-192.71 148.42,-362.11 212.13,-508.2 63.73,-146.08 112.69,-248.66 146.88,-307.72 24.86,-43.51 47.39,-69.15 67.6,-76.93 20.2,-7.77 58.28,-11.65 114.23,-11.65 z m -559.48,1916.25 h 536.17 l -195.82,-1230.88 z m 2461.75,1394.05 c -174.07,0 -298.4,-34.19 -373,-102.57 -74.59,-68.38 -111.89,-166.29 -111.89,-293.74 0,-62.16 4.66,-168.62 13.98,-319.37 9.33,-150.75 21.76,-322.48 37.3,-515.2 15.54,-192.71 31.09,-396.3 46.63,-610.76 15.53,-214.48 31.07,-416.52 46.62,-606.12 15.54,-189.6 27.97,-355.9 37.3,-498.88 9.33,-142.98 13.99,-240.89 13.99,-293.72 0,-46.63 24.86,-69.94 74.59,-69.94 h 256.43 c 189.61,0 317.05,40.4 382.32,121.22 65.27,80.82 97.91,200.49 97.91,359.01 0,15.53 -2.33,65.27 -7,149.19 -4.66,83.92 -11.64,189.61 -20.97,317.04 -9.33,127.44 -19.43,269.65 -30.31,426.62 -10.88,156.96 -21.76,317.81 -32.63,482.56 -10.88,164.73 -21.76,325.59 -32.64,482.55 -10.88,156.97 -20.98,299.17 -30.31,426.61 -9.32,127.43 -17.09,233.89 -23.31,319.37 -6.21,85.48 -10.88,137.55 -13.99,156.19 -3.1,24.87 -9.33,42.74 -18.64,53.62 -9.33,10.88 -27.98,16.32 -55.96,16.32 z m 1463.99,0 c -177.18,0 -302.28,-34.97 -375.33,-104.91 -73.04,-69.93 -109.56,-173.28 -109.56,-310.04 0,-37.3 2.33,-100.25 6.98,-188.83 4.67,-88.58 11.66,-193.49 20.99,-314.71 9.33,-121.23 19.43,-254.1 30.31,-398.64 10.87,-144.53 22.52,-291.4 34.96,-440.6 24.86,-313.94 42.74,-568.81 53.62,-764.63 10.88,-195.82 19.42,-349.68 25.64,-461.58 9.33,-139.87 18.66,-229.23 27.97,-268.08 9.33,-38.85 29.54,-58.28 60.61,-58.28 96.36,0 195.05,-2.33 296.07,-7 101.02,-4.66 198.15,-10.09 291.4,-16.32 93.25,-6.22 181.06,-11.65 263.43,-16.31 82.37,-4.67 156.19,-7 221.46,-7 198.93,0 369.89,24.87 512.87,74.6 142.97,49.73 258.76,119.67 347.34,209.81 88.59,90.14 153.86,198.93 195.83,326.37 41.95,127.43 62.94,270.42 62.94,428.94 0,242.44 -48.18,458.46 -144.54,648.07 -96.35,189.61 -250.22,334.13 -461.57,433.61 l 391.64,559.48 c 71.49,105.68 125.87,187.28 163.17,244.77 37.31,57.51 55.96,100.25 55.96,128.22 0,21.76 -13.21,52.06 -39.63,90.91 -26.42,38.87 -65.28,77.72 -116.57,116.57 -51.28,38.85 -113.44,72.27 -186.49,100.24 -73.04,27.98 -154.63,41.96 -244.78,41.96 -99.46,0 -185.71,-32.64 -258.76,-97.91 -73.04,-65.28 -138.31,-151.53 -195.82,-258.77 -57.5,-107.23 -107.23,-230.78 -149.2,-370.65 -41.96,-139.87 -81.58,-285.96 -118.88,-438.27 -111.91,-6.21 -203.6,-17.09 -275.09,-32.63 -9.32,136.76 -18.65,267.31 -27.97,391.64 -9.32,124.32 -17.1,235.45 -23.31,333.36 -6.22,97.91 -12.43,178.72 -18.65,242.45 -6.22,63.71 -9.33,101.79 -9.33,114.22 -3.11,24.87 -9.32,42.74 -18.65,53.62 -9.32,10.88 -27.98,16.32 -55.95,16.32 z m 755.3,-2657.57 c -37.3,0 -79.26,2.33 -125.88,7 -46.63,4.66 -96.36,10.09 -149.19,16.31 -6.23,108.79 -13.23,238.57 -20.99,389.31 -7.77,150.76 -17.88,311.61 -30.31,482.56 108.79,24.87 203.59,37.3 284.41,37.3 96.36,0 174.84,-18.64 235.45,-55.94 60.61,-37.31 108.01,-83.15 142.2,-137.55 34.2,-54.39 56.73,-112.67 67.61,-174.83 10.88,-62.17 16.32,-118.12 16.32,-167.85 0,-127.45 -31.08,-225.35 -93.25,-293.74 -62.17,-68.37 -170.96,-102.57 -326.37,-102.57 z"
            id="path7" />
            <path
            class="fil1"
            d="m 18140.68,12543.68 h 75.88 15.26 c 43.55,0 65.44,18.87 65.44,56.61 0,23.48 -8.84,43.55 -26.7,59.81 -17.67,16.26 -39.75,24.49 -65.84,24.49 h -15.26 -105.79 l -114.21,281.63 c -79.09,194.51 -196.32,291.66 -351.68,291.66 -81.1,0 -148.35,-26.09 -201.74,-78.48 -53.2,-52.39 -79.89,-118.43 -79.89,-197.92 0,-62.03 15.85,-121.25 47.37,-177.85 31.51,-56.41 75.68,-104.99 132.48,-145.73 48.38,-34.13 104.39,-61.23 168.62,-81.3 64.03,-19.87 127.27,-29.91 189.69,-29.91 l 82.91,-2.41 25.89,-0.6 112.81,-284.24 6.42,-16.46 c 9.03,-24.29 20.48,-40.55 34.53,-48.57 13.85,-8.03 37.33,-12.05 70.26,-12.05 h 301.7 c 53.99,0 81.09,19.27 81.09,57.81 0,22.69 -9.03,42.35 -26.9,58.62 -17.86,16.26 -39.74,24.48 -65.44,24.48 h -15.85 -251.12 z m -214.78,140.91 h -31.72 c -115.82,0 -208.56,26.5 -277.81,79.49 -77.68,59.22 -116.42,126.26 -116.42,200.73 0,40.15 12.24,73.67 36.73,100.77 24.49,27.1 55,40.55 91.33,40.55 84.71,0 154.16,-67.25 208.56,-201.93 z m 871.58,173.43 h 64.84 c 49.58,0 74.47,17.27 74.47,51.59 0,23.69 -8.84,42.36 -26.5,55.8 -17.87,13.45 -42.16,20.28 -73.27,20.28 h -75.27 c -33.72,0 -56.81,-13.05 -68.85,-39.34 -29.51,26.29 -57.82,39.34 -85.32,39.34 h -67.04 c -43.16,0 -78.09,-15.45 -104.78,-46.17 -26.5,-30.71 -39.75,-70.86 -39.75,-120.64 0,-75.27 26.1,-142.52 78.09,-201.93 51.99,-59.22 110.8,-88.93 176.24,-88.93 50.39,0 86.92,17.06 110.2,51.39 19.68,-29.51 45.37,-44.16 77.08,-44.16 17.27,0 31.72,5.42 43.36,16.46 11.44,11.04 17.27,24.69 17.27,40.75 0,11.04 -3.22,24.29 -9.44,39.54 l -6.42,15.86 z m -213.38,2.41 h 14.65 c 32.32,0 53.8,-13.25 64.44,-39.54 l 41.35,-101.77 c 5.42,-13.45 8.23,-24.49 8.23,-33.52 0,-10.64 -5.22,-19.87 -15.66,-27.7 -10.44,-7.84 -23.08,-11.85 -37.54,-11.85 -28.9,0 -57,16.66 -84.1,49.99 -27.3,33.51 -40.95,68.04 -40.95,103.77 0,40.35 16.46,60.62 49.58,60.62 z m 666.43,-325.18 c 17.47,-4.82 33.12,-7.23 46.97,-7.23 45.37,0 82.3,16.86 110.41,50.79 28.3,33.92 42.35,77.88 42.35,131.88 0,104.58 -40.35,186.08 -121.04,244.49 -28.31,20.27 -57.61,30.51 -88.12,30.51 h -56.01 c -38.74,0 -71.86,-13.85 -99.36,-41.75 -16.26,27.9 -42.15,41.75 -77.28,41.75 -16.86,0 -31.11,-5.42 -42.76,-16.46 -11.84,-11.04 -17.67,-24.29 -17.67,-39.94 0,-11.85 3.22,-25.5 9.44,-40.75 l 6.43,-15.86 245.89,-608.02 6.43,-16.46 c 18.46,-43.96 46.76,-65.84 85.1,-65.84 17.67,0 32.32,5.42 44.37,16.26 11.84,10.64 17.86,23.89 17.86,39.55 0,12.24 -3.21,25.69 -9.43,40.74 l -6.42,16.46 z m -117.02,288.45 c 19.46,25.29 42.55,37.94 68.85,37.94 18.86,0 34.72,-5.22 47.77,-15.86 18.07,-14.45 33.72,-35.93 47.37,-64.44 13.45,-28.5 20.28,-53.99 20.28,-76.67 0,-17.67 -5.02,-31.92 -15.26,-43.16 -10.24,-11.04 -23.68,-16.66 -40.15,-16.66 -37.33,0 -67.04,27.5 -89.52,82.5 z m 495,-159.58 -19.87,49.58 c -18.07,43.96 -41.55,66.04 -70.46,66.04 -17.47,0 -32.12,-5.22 -43.76,-15.86 -11.84,-10.64 -17.66,-23.89 -17.66,-39.54 0,-9.04 4.21,-24.29 12.84,-45.97 l 66.45,-164.4 c 15.85,-39.54 38.54,-59.42 68.04,-59.42 28.91,0 46.58,13.65 53.4,41.16 l 4.62,18.26 c 2.41,9.44 5.82,15.46 10.63,17.66 4.62,2.41 16.06,3.62 34.53,3.62 h 137.7 c 51.19,0 76.68,18.06 76.68,54.2 0,49.78 -32.52,74.67 -97.35,74.67 l -6.43,5.82 c -61.62,60.02 -92.54,106.39 -92.54,139.11 0,32.72 17.67,48.97 53,48.97 h 74.27 c 49.98,0 75.07,17.27 75.07,51.59 0,24.09 -8.83,42.96 -26.29,56.21 -17.47,13.24 -41.95,19.87 -73.47,19.87 h -115.42 c -38.95,0 -70.86,-13.45 -95.75,-40.55 -24.69,-27.09 -37.14,-62.43 -37.14,-105.58 0,-27.5 6.63,-54.2 19.88,-80.09 13.25,-25.9 36.73,-57.62 70.25,-95.35 z m 508.06,193.9 h 66.44 c 49.18,0 73.66,17.47 73.66,52.19 0,23.69 -8.62,42.36 -26.09,55.61 -17.26,13.24 -41.55,19.87 -72.86,19.87 h -93.54 c -34.53,0 -61.63,-7.03 -81.3,-21.28 -19.87,-14.05 -29.71,-33.32 -29.71,-57.61 0,-13.04 4.22,-29.5 12.44,-49.38 l 97.16,-239.07 6.42,-16.66 c 18.07,-44.36 46.98,-66.44 87.12,-66.44 16.46,0 30.71,5.42 42.76,16.46 11.84,11.04 17.86,24.29 17.86,39.54 0,12.65 -5.22,31.92 -15.86,57.81 z m 77.48,-510.66 c 22.88,0 42.15,8.03 58.01,23.89 15.86,15.86 23.89,35.13 23.89,58.01 0,22.68 -8.03,42.16 -23.89,58.01 -15.86,15.86 -35.13,23.89 -58.01,23.89 -22.68,0 -42.16,-8.03 -58.02,-23.89 -15.85,-15.85 -23.88,-35.33 -23.88,-58.01 0,-22.88 8.03,-42.15 23.88,-58.01 15.86,-15.86 35.34,-23.89 58.02,-23.89 z m 422.34,638.33 h -170.62 c -48.98,0 -89.13,-17.26 -119.84,-51.79 -30.92,-34.33 -46.37,-79.09 -46.37,-133.89 0,-73.26 25.29,-136.9 75.88,-190.89 50.58,-54 110,-81.1 178.25,-81.1 46.36,0 84.1,13.05 113.01,38.94 29.11,25.9 43.56,59.62 43.56,101.17 0,29.11 -7.23,53 -21.68,71.66 -14.45,18.67 -33.12,27.9 -55.6,27.9 -35.93,0 -54,-16.86 -54,-50.58 0,-5.02 0,-9.23 0,-12.84 0,-4.22 0,-8.44 0,-12.25 0,-27.5 -13.65,-41.15 -40.75,-41.15 -25.49,0 -48.78,13.45 -69.86,40.55 -21.07,26.9 -31.51,57.01 -31.51,90.32 0,27.71 8.63,47.38 25.7,59.02 17.26,11.45 46.36,17.26 87.31,17.26 h 111.21 c 49.58,0 74.47,17.47 74.47,52.19 0,23.29 -8.83,41.76 -26.7,55.2 -17.86,13.45 -41.95,20.28 -72.46,20.28 z m 522.71,-127.67 h 64.83 c 49.58,0 74.48,17.27 74.48,51.59 0,23.69 -8.84,42.36 -26.5,55.8 -17.87,13.45 -42.16,20.28 -73.27,20.28 h -75.28 c -33.72,0 -56.8,-13.05 -68.85,-39.34 -29.5,26.29 -57.81,39.34 -85.31,39.34 h -67.04 c -43.16,0 -78.09,-15.45 -104.79,-46.17 -26.49,-30.71 -39.74,-70.86 -39.74,-120.64 0,-75.27 26.09,-142.52 78.08,-201.93 51.99,-59.22 110.81,-88.93 176.25,-88.93 50.38,0 86.91,17.06 110.2,51.39 19.67,-29.51 45.37,-44.16 77.08,-44.16 17.26,0 31.71,5.42 43.36,16.46 11.44,11.04 17.26,24.69 17.26,40.75 0,11.04 -3.21,24.29 -9.43,39.54 l -6.43,15.86 z m -213.38,2.41 h 14.65 c 32.32,0 53.8,-13.25 64.44,-39.54 l 41.35,-101.77 c 5.41,-13.45 8.22,-24.49 8.22,-33.52 0,-10.64 -5.21,-19.87 -15.65,-27.7 -10.44,-7.84 -23.09,-11.85 -37.54,-11.85 -28.9,0 -57.01,16.66 -84.1,49.99 -27.3,33.51 -40.95,68.04 -40.95,103.77 0,40.35 16.46,60.62 49.58,60.62 z m 1082.14,-2.41 h 69.86 c 49.58,0 74.27,17.47 74.27,52.19 0,23.69 -8.63,42.36 -26.1,55.61 -17.46,13.24 -41.75,19.87 -72.86,19.87 h -119.23 c -25.7,0 -46.58,-6.83 -62.63,-20.48 -15.86,-13.85 -23.89,-31.71 -23.89,-54.19 0,-15.26 5.21,-35.93 15.65,-62.23 l 54.4,-134.49 c 3.02,-7.83 4.62,-15.05 4.62,-21.68 0,-25.49 -12.85,-38.14 -38.74,-38.14 -19.88,0 -39.74,9.03 -59.22,27.1 -19.47,17.87 -35.12,41.75 -46.97,71.66 l -65.64,162.2 c -21.48,52.39 -52.79,78.68 -93.94,78.68 -16.06,0 -29.71,-5.22 -40.95,-15.86 -11.44,-10.63 -17.06,-23.08 -17.06,-37.53 0,-11.44 3.01,-24.69 8.83,-39.95 l 6.42,-16.06 66.24,-163.79 c 5.83,-14.46 8.84,-25.9 8.84,-34.13 0,-8.63 -4.02,-16.26 -11.85,-22.68 -7.83,-6.43 -17.06,-9.64 -27.5,-9.64 -42.35,0 -76.07,30.51 -100.76,91.74 l -68.85,168.61 c -21.48,52.8 -52.8,79.29 -93.54,79.29 -16.06,0 -29.91,-5.22 -41.56,-15.66 -11.44,-10.43 -17.26,-23.08 -17.26,-37.93 0,-11.84 3.01,-25.09 8.83,-40.15 l 6.42,-15.86 117.23,-288.65 c 16.46,-40.35 41.16,-60.62 74.07,-60.62 34.13,0 55.2,16.06 63.64,48.37 26.49,-22.47 48.17,-37.33 64.83,-44.56 16.66,-7.43 37.14,-11.04 61.43,-11.04 52.59,0 91.93,22.69 118.23,68.05 43.96,-45.36 93.34,-68.05 148.14,-68.05 37.53,0 68.85,10.84 94.14,32.72 25.29,21.68 37.94,48.38 37.94,80.3 0,19.87 -4.22,40.54 -12.85,61.62 z m 438.8,-330 c 56.81,0 103.58,18.07 140.12,54 36.73,36.13 55,81.89 55,137.5 0,41.95 -9.64,83.5 -28.71,124.85 -19.27,41.35 -44.16,74.28 -74.67,98.97 -20.48,16.06 -41.55,27.1 -63.23,33.32 -21.68,6.02 -52.19,9.03 -91.34,9.03 -64.03,0 -106.98,-7.63 -129.47,-22.88 -52.39,-36.14 -78.69,-89.33 -78.69,-159.79 0,-74.47 26.9,-138.9 80.5,-193.3 53.8,-54.4 117.23,-81.7 190.49,-81.7 z m -14.25,125.26 c -28.9,0 -55.2,14.25 -78.88,42.96 -23.89,28.7 -35.74,60.21 -35.74,94.74 0,45.57 25.3,68.25 76.08,68.25 29.71,0 52.39,-9.23 68.45,-27.7 26.5,-30.11 39.75,-64.64 39.75,-103.58 0,-22.28 -6.42,-40.35 -19.27,-54 -12.85,-13.85 -29.71,-20.67 -50.39,-20.67 z m 436.39,42.96 -11.24,27.29 c -17.26,39.15 -41.95,58.62 -73.66,58.62 -16.27,0 -30.72,-5.62 -43.37,-16.86 -12.84,-11.05 -19.26,-23.89 -19.26,-38.54 0,-13.65 5.61,-31.92 17.06,-54.8 l 78.08,-158.98 c 19.28,-38.14 43.16,-57.21 71.87,-57.21 15.25,0 28.3,5.02 39.34,15.06 11.04,10.03 16.46,21.87 16.46,35.52 0,3.62 -1.2,11.24 -3.61,22.89 -1.61,8.63 -2.42,16.25 -2.42,23.08 0,24.69 9.24,49.98 27.91,75.68 l 33.72,46.56 c 34.33,47.38 51.59,93.34 51.59,137.71 0,49.38 -18.47,90.53 -55.4,123.65 -36.74,33.12 -82.7,49.78 -137.71,49.78 h -122.84 c -49.58,0 -74.28,-17.26 -74.28,-51.59 0,-23.69 8.84,-42.35 26.3,-55.8 17.67,-13.45 41.76,-20.28 72.67,-20.28 h 68.25 c 54.79,0 82.09,-19.87 82.09,-59.61 0,-14.45 -5.21,-31.72 -15.45,-51.39 z m 721.63,0 -11.24,27.29 c -17.26,39.15 -41.95,58.62 -73.66,58.62 -16.27,0 -30.72,-5.62 -43.36,-16.86 -12.85,-11.05 -19.27,-23.89 -19.27,-38.54 0,-13.65 5.62,-31.92 17.06,-54.8 l 78.08,-158.98 c 19.28,-38.14 43.16,-57.21 71.87,-57.21 15.25,0 28.3,5.02 39.34,15.06 11.04,10.03 16.46,21.87 16.46,35.52 0,3.62 -1.2,11.24 -3.61,22.89 -1.61,8.63 -2.41,16.25 -2.41,23.08 0,24.69 9.23,49.98 27.9,75.68 l 33.72,46.56 c 34.33,47.38 51.59,93.34 51.59,137.71 0,49.38 -18.46,90.53 -55.4,123.65 -36.74,33.12 -82.7,49.78 -137.71,49.78 h -122.84 c -49.58,0 -74.27,-17.26 -74.27,-51.59 0,-23.69 8.83,-42.35 26.29,-55.8 17.67,-13.45 41.76,-20.28 72.67,-20.28 h 68.25 c 54.8,0 82.09,-19.87 82.09,-59.61 0,-14.45 -5.21,-31.72 -15.45,-51.39 z m 497.02,-168.22 c 56.8,0 103.58,18.07 140.11,54 36.74,36.13 55,81.89 55,137.5 0,41.95 -9.64,83.5 -28.7,124.85 -19.28,41.35 -44.17,74.28 -74.68,98.97 -20.48,16.06 -41.55,27.1 -63.23,33.32 -21.68,6.02 -52.19,9.03 -91.33,9.03 -64.04,0 -106.99,-7.63 -129.48,-22.88 -52.39,-36.14 -78.68,-89.33 -78.68,-159.79 0,-74.47 26.89,-138.9 80.49,-193.3 53.8,-54.4 117.23,-81.7 190.5,-81.7 z m -14.25,125.26 c -28.91,0 -55.2,14.25 -78.89,42.96 -23.89,28.7 -35.73,60.21 -35.73,94.74 0,45.57 25.29,68.25 76.07,68.25 29.71,0 52.4,-9.23 68.45,-27.7 26.5,-30.11 39.75,-64.64 39.75,-103.58 0,-22.28 -6.42,-40.35 -19.27,-54 -12.85,-13.85 -29.71,-20.67 -50.38,-20.67 z m 676.26,204.74 h 70.66 c 49.58,0 74.27,17.47 74.27,52.19 0,23.69 -8.83,42.36 -26.29,55.61 -17.67,13.24 -41.96,19.87 -72.67,19.87 h -122.85 c -24.09,0 -44.36,-7.23 -60.82,-21.68 -16.26,-14.65 -24.49,-32.92 -24.49,-54.8 0,-13.25 5.62,-33.32 16.66,-60.01 l 52.59,-128.27 c 5.62,-13.25 8.63,-24.09 9.03,-32.32 0.41,-9.43 -3.41,-17.47 -11.44,-24.09 -8.02,-6.62 -18.46,-10.04 -30.91,-10.04 -40.55,0 -73.27,30.31 -97.96,91.14 l -69.45,170.82 c -20.88,51.79 -51.99,77.68 -93.14,77.68 -17.06,0 -31.31,-5.02 -43.15,-15.26 -11.85,-10.23 -17.67,-22.88 -17.67,-37.73 0,-11.04 3.21,-24.09 9.43,-39.54 l 6.43,-15.87 118.83,-293.26 c 15.46,-38.14 41.35,-57.21 78.29,-57.21 30.31,0 51.79,13.45 64.83,40.15 41.96,-31.52 82.1,-47.38 120.04,-47.38 36.94,0 67.45,10.64 91.33,31.71 23.89,21.28 35.93,48.18 35.93,80.7 0,18.07 -4.41,37.74 -13.05,59.42 z m 314.14,-193.9 -19.87,49.58 c -18.06,43.96 -41.55,66.04 -70.45,66.04 -17.47,0 -32.12,-5.22 -43.76,-15.86 -11.85,-10.64 -17.67,-23.89 -17.67,-39.54 0,-9.04 4.22,-24.29 12.85,-45.97 l 66.44,-164.4 c 15.86,-39.54 38.54,-59.42 68.05,-59.42 28.9,0 46.57,13.65 53.39,41.16 l 4.62,18.26 c 2.41,9.44 5.82,15.46 10.64,17.66 4.62,2.41 16.06,3.62 34.53,3.62 h 137.7 c 51.18,0 76.68,18.06 76.68,54.2 0,49.78 -32.52,74.67 -97.36,74.67 l -6.42,5.82 c -61.62,60.02 -92.54,106.39 -92.54,139.11 0,32.72 17.67,48.97 52.99,48.97 h 74.28 c 49.98,0 75.07,17.27 75.07,51.59 0,24.09 -8.83,42.96 -26.29,56.21 -17.47,13.24 -41.96,19.87 -73.47,19.87 h -115.43 c -38.94,0 -70.85,-13.45 -95.74,-40.55 -24.69,-27.09 -37.14,-62.43 -37.14,-105.58 0,-27.5 6.63,-54.2 19.88,-80.09 13.24,-25.9 36.73,-57.62 70.25,-95.35 z m 508.06,193.9 h 66.45 c 49.18,0 73.66,17.47 73.66,52.19 0,23.69 -8.63,42.36 -26.09,55.61 -17.27,13.24 -41.55,19.87 -72.87,19.87 h -93.54 c -34.53,0 -61.62,-7.03 -81.29,-21.28 -19.88,-14.05 -29.71,-33.32 -29.71,-57.61 0,-13.04 4.21,-29.5 12.44,-49.38 l 97.16,-239.07 6.42,-16.66 c 18.06,-44.36 46.97,-66.44 87.12,-66.44 16.46,0 30.71,5.42 42.75,16.46 11.85,11.04 17.87,24.29 17.87,39.54 0,12.65 -5.22,31.92 -15.86,57.81 z m 77.49,-510.66 c 22.88,0 42.15,8.03 58.01,23.89 15.85,15.86 23.88,35.13 23.88,58.01 0,22.68 -8.03,42.16 -23.88,58.01 -15.86,15.86 -35.13,23.89 -58.01,23.89 -22.69,0 -42.16,-8.03 -58.02,-23.89 -15.85,-15.85 -23.89,-35.33 -23.89,-58.01 0,-22.88 8.04,-42.15 23.89,-58.01 15.86,-15.86 35.33,-23.89 58.02,-23.89 z m 281.22,348.88 -11.24,27.29 c -17.26,39.15 -41.95,58.62 -73.67,58.62 -16.26,0 -30.71,-5.62 -43.36,-16.86 -12.85,-11.05 -19.27,-23.89 -19.27,-38.54 0,-13.65 5.62,-31.92 17.06,-54.8 l 78.09,-158.98 c 19.27,-38.14 43.15,-57.21 71.86,-57.21 15.26,0 28.31,5.02 39.35,15.06 11.04,10.03 16.46,21.87 16.46,35.52 0,3.62 -1.21,11.24 -3.62,22.89 -1.6,8.63 -2.41,16.25 -2.41,23.08 0,24.69 9.24,49.98 27.91,75.68 l 33.72,46.56 c 34.32,47.38 51.59,93.34 51.59,137.71 0,49.38 -18.47,90.53 -55.4,123.65 -36.74,33.12 -82.7,49.78 -137.71,49.78 h -122.85 c -49.58,0 -74.27,-17.26 -74.27,-51.59 0,-23.69 8.84,-42.35 26.3,-55.8 17.67,-13.45 41.75,-20.28 72.66,-20.28 h 68.25 c 54.8,0 82.1,-19.87 82.1,-59.61 0,-14.45 -5.22,-31.72 -15.45,-51.39 z m 626.29,161.78 h 64.83 c 49.58,0 74.48,17.27 74.48,51.59 0,23.69 -8.84,42.36 -26.5,55.8 -17.87,13.45 -42.16,20.28 -73.27,20.28 h -75.28 c -33.72,0 -56.8,-13.05 -68.85,-39.34 -29.5,26.29 -57.81,39.34 -85.31,39.34 h -67.04 c -43.16,0 -78.09,-15.45 -104.79,-46.17 -26.49,-30.71 -39.74,-70.86 -39.74,-120.64 0,-75.27 26.09,-142.52 78.08,-201.93 51.99,-59.22 110.81,-88.93 176.25,-88.93 50.38,0 86.91,17.06 110.2,51.39 19.67,-29.51 45.37,-44.16 77.08,-44.16 17.26,0 31.71,5.42 43.36,16.46 11.44,11.04 17.26,24.69 17.26,40.75 0,11.04 -3.21,24.29 -9.43,39.54 l -6.43,15.86 z m -213.38,2.41 h 14.65 c 32.32,0 53.8,-13.25 64.44,-39.54 l 41.35,-101.77 c 5.41,-13.45 8.22,-24.49 8.22,-33.52 0,-10.64 -5.21,-19.87 -15.65,-27.7 -10.44,-7.84 -23.09,-11.85 -37.54,-11.85 -28.9,0 -57.01,16.66 -84.1,49.99 -27.3,33.51 -40.95,68.04 -40.95,103.77 0,40.35 16.45,60.62 49.58,60.62 z m 570.48,-164.19 -11.25,27.29 c -17.26,39.15 -41.95,58.62 -73.66,58.62 -16.26,0 -30.72,-5.62 -43.36,-16.86 -12.85,-11.05 -19.27,-23.89 -19.27,-38.54 0,-13.65 5.62,-31.92 17.06,-54.8 l 78.08,-158.98 c 19.28,-38.14 43.16,-57.21 71.87,-57.21 15.25,0 28.3,5.02 39.34,15.06 11.04,10.03 16.46,21.87 16.46,35.52 0,3.62 -1.2,11.24 -3.61,22.89 -1.6,8.63 -2.41,16.25 -2.41,23.08 0,24.69 9.23,49.98 27.9,75.68 l 33.72,46.56 c 34.33,47.38 51.59,93.34 51.59,137.71 0,49.38 -18.46,90.53 -55.4,123.65 -36.73,33.12 -82.7,49.78 -137.7,49.78 h -122.85 c -49.58,0 -74.27,-17.26 -74.27,-51.59 0,-23.69 8.83,-42.35 26.29,-55.8 17.67,-13.45 41.76,-20.28 72.67,-20.28 h 68.25 c 54.8,0 82.1,-19.87 82.1,-59.61 0,-14.45 -5.22,-31.72 -15.46,-51.39 z m 339.63,141.31 c 22.29,0 41.35,8.03 57.41,24.09 16.07,16.06 24.09,35.13 24.09,57.41 0,22.88 -8.02,42.15 -24.09,58.21 -16.06,16.06 -35.12,24.09 -57.41,24.09 -22.88,0 -42.15,-8.03 -58.2,-24.09 -16.07,-16.06 -24.09,-35.33 -24.09,-58.21 0,-22.28 8.02,-41.35 24.09,-57.41 16.05,-16.06 35.32,-24.09 58.2,-24.09 z m 300.5,0 c 22.28,0 41.35,8.03 57.41,24.09 16.06,16.06 24.09,35.13 24.09,57.41 0,22.88 -8.03,42.15 -24.09,58.21 -16.06,16.06 -35.13,24.09 -57.41,24.09 -22.88,0 -42.15,-8.03 -58.21,-24.09 -16.06,-16.06 -24.09,-35.33 -24.09,-58.21 0,-22.28 8.03,-41.35 24.09,-57.41 16.06,-16.06 35.33,-24.09 58.21,-24.09 z m 300.5,0 c 22.28,0 41.35,8.03 57.4,24.09 16.07,16.06 24.09,35.13 24.09,57.41 0,22.88 -8.02,42.15 -24.09,58.21 -16.05,16.06 -35.12,24.09 -57.4,24.09 -22.89,0 -42.16,-8.03 -58.21,-24.09 -16.07,-16.06 -24.09,-35.33 -24.09,-58.21 0,-22.28 8.02,-41.35 24.09,-57.41 16.05,-16.06 35.32,-24.09 58.21,-24.09 z"
            id="path9" />
            <path
            class="fil0"
            d="m 1724.24,8238.06 -4.51,2691.51 c 67.29,1459.47 1104.09,2538.9 2470.19,2550.03 1327.14,10.82 2426.05,-1099.24 2482.49,-2504.73 1.3,-520.66 -589.05,-519.06 -591.61,-6.68 -66.14,1056.35 -887.81,1886.18 -1889.3,1878.02 -1001.46,-8.16 -1818.96,-851.35 -1879.81,-1908.73 l 6.75,-2694.58 c 1.34,-534.75 -593.27,-539.28 -594.2,-4.84 z m 2481.7,-25.44 -3.06,1251.94 c -1.34,534.12 590.29,539.57 591.63,4.82 l 4.36,-1248.19 c -5.4,-375.08 290.15,-682.23 636.51,-679.4 343.6,2.8 632.77,307.64 631.84,677.4 -1.34,534.26 602.41,539.56 594.2,4.84 -11,-720.06 -545.29,-1312.46 -1224.41,-1317.99 -678.07,-5.53 -1229.25,579.46 -1231.07,1306.58 z m -880.03,-1867.59 -7.77,3098.67 c -1.34,534.54 674.84,540.26 676.18,5.51 l 7.77,-3098.67 c 1.34,-534.77 -674.84,-540.07 -676.18,-5.51 z m -807.06,876.02 -7.77,3098.69 c -1.34,534.54 662.17,540.15 663.51,5.41 l 7.77,-3098.69 c 1.34,-534.75 -662.17,-539.95 -663.51,-5.41 z"
            id="path11" />
            <g
            id="g16">
            <path
            class="fil2 str0"
            d="m 6154.09,10393.65 c -42.14,-49.77 -74.47,-114.44 -98.33,-177.44 -23.87,-63 -39.25,-124.35 -48.06,-214.03 -8.82,-89.68 -11.05,-207.7 -30.97,-310.53 -19.92,-102.82 -57.53,-190.45 -108.01,-300.98 -50.48,-110.53 -113.83,-243.96 -112.89,-347.31 0.95,-103.34 66.17,-176.6 124.74,-210.38 58.55,-33.78 110.44,-28.1 162.82,-20.48 52.38,7.61 105.26,17.16 183.48,-4.88 78.21,-22.03 181.77,-75.64 259.53,-88.11 77.75,-12.46 129.72,16.22 162.97,35.41 33.26,19.19 47.81,28.89 21.92,41.63 -25.89,12.74 -92.22,28.53 -77.83,22.37 14.4,-6.16 109.5,-34.25 183.13,-39.2 73.63,-4.96 125.77,13.21 170.8,66.37 45.02,53.15 82.91,141.29 76.63,231.99 -6.28,90.7 -56.74,183.97 -90.31,257.76 -33.56,73.79 -50.22,128.09 -66.71,207.59 -16.48,79.51 -32.79,184.2 -47,278.61 -14.22,94.39 -26.33,178.49 -41.01,246.66 -14.68,68.17 -31.92,120.43 -56.49,171.19 -24.57,50.75 -56.47,100 -86.41,127.49 -10.8013,9.914 -21.3461,16.995 -31.6914,21.684 -2.9835,1.352 -5.9504,2.505 -8.9021,3.47 -15.1835,4.962 -29.9639,4.936 -44.5265,1.356 -27.21,-6.69 -53.65,-25.78 -65.53,-64.21 -11.87,-38.43 -9.19,-96.18 -7.04,-163.86 2.14,-67.67 3.76,-145.27 6.19,-197.81 2.42,-52.55 5.66,-80.03 1.61,-105.89 -4.04,-25.87 -15.35,-50.12 -20.99,-62.81 -5.63,-12.7 -5.59,-13.84 8.96,-19.5 14.55,-5.66 43.61,-15.83 71.87,-12.84 28.27,3 55.76,19.16 56.57,19.16 0.8,0 -25.07,-16.16 -55.78,-18.59 -30.72,-2.42 -66.29,8.89 -92.55,26.41 -26.27,17.51 -43.25,41.22 -57.19,72.03 -13.95,30.81 -24.86,68.71 -31.89,113.49 -7.02,44.78 -10.16,96.45 -5.91,156.18 4.24,59.72 15.86,127.51 23.39,180.76 7.53,53.24 10.96,91.94 -3.48,122.31 -14.44,30.37 -46.75,52.4 -88.89,45.99 -42.13,-6.42 -94.07,-41.3 -136.22,-91.06 z"
            id="path13"
            sodipodi:nodetypes="cccssccccccsccsscccsccssscccccscscccccsscc" />
            <path
            id="1"
            class="fil3"
            d="m 6154.09,10393.65 c -42.14,-49.77 -74.47,-114.44 -98.33,-177.44 -23.87,-63 -39.25,-124.35 -48.06,-214.03 -8.82,-89.68 -11.05,-207.7 -30.97,-310.53 -19.92,-102.82 -57.53,-190.45 -108.01,-300.98 -50.48,-110.53 -113.83,-243.96 -112.89,-347.31 0.95,-103.34 66.17,-176.6 124.74,-210.38 58.55,-33.78 110.44,-28.1 162.82,-20.48 52.38,7.61 105.26,17.16 183.48,-4.88 78.21,-22.03 181.77,-75.64 259.53,-88.11 77.75,-12.46 129.72,16.22 162.97,35.41 33.26,19.19 47.81,28.89 21.92,41.63 -25.89,12.74 -92.22,28.53 -77.83,22.37 14.4,-6.16 109.5,-34.25 183.13,-39.2 73.63,-4.96 125.77,13.21 170.8,66.37 45.02,53.15 82.91,141.29 76.63,231.99 -6.28,90.7 -56.74,183.97 -90.31,257.76 -33.56,73.79 -50.22,128.09 -66.71,207.59 -16.48,79.51 -32.79,184.2 -47,278.61 -14.22,94.39 -26.33,178.49 -41.01,246.66 -14.68,68.17 -31.92,120.43 -56.49,171.19 -24.57,50.75 -56.47,100 -86.41,127.49 -29.94,27.48 -57.91,33.2 -85.12,26.51 -27.21,-6.69 -53.65,-25.78 -65.53,-64.21 -11.87,-38.43 -9.19,-96.18 -7.04,-163.86 2.14,-67.67 3.76,-145.27 6.19,-197.81 2.42,-52.55 5.66,-80.03 1.61,-105.89 -4.04,-25.87 -15.35,-50.12 -20.99,-62.81 -5.63,-12.7 -5.59,-13.84 8.96,-19.5 14.55,-5.66 43.61,-15.83 71.87,-12.84 28.27,3 55.76,19.16 56.57,19.16 0.8,0 -25.07,-16.16 -55.78,-18.59 -30.72,-2.42 -66.29,8.89 -92.55,26.41 -26.27,17.51 -43.25,41.22 -57.19,72.03 -13.95,30.81 -24.86,68.71 -31.89,113.49 -7.02,44.78 -10.16,96.45 -5.91,156.18 4.24,59.72 15.86,127.51 23.39,180.76 7.53,53.24 10.96,91.94 -3.48,122.31 -14.44,30.37 -46.75,52.4 -88.89,45.99 -42.13,-6.42 -94.07,-41.3 -136.22,-91.06 z" />
            </g>
            <path
            class="fil1"
            d="m 9884.88,7125.76 h -453.11 v 593.28 h 453.11 v -201.76 l 122.47,30.3 v 99.21 c 0,77.57 -10.98,130.17 -33.17,158.14 -22.2,27.97 -64.3,41.95 -126.04,41.95 h -381.16 c -61.74,0 -103.58,-13.65 -125.27,-40.62 -21.69,-26.96 -32.4,-79.9 -32.4,-159.47 V 7201 c 0,-78.57 10.97,-131.84 32.91,-159.47 21.94,-27.63 63.53,-41.62 124.76,-41.62 h 381.16 c 61.74,0 103.84,14.32 126.04,42.62 22.19,28.3 33.17,80.9 33.17,158.47 v 80.24 l -122.47,26.3 z m 258.45,721.12 v -846.97 h 122.46 v 719.13 h 505.16 v 127.84 z m 814.12,0 h -122.47 v -844.97 h 122.47 z m -163.8,-954.84 156.14,-339.58 h 133.18 L 10873,6892.04 Z m 440.61,277.67 c 3.06,24.63 5.1,49.6 6.63,75.24 1.53,25.3 2.3,50.6 2.3,75.91 v 526.02 h -113.28 v -846.97 h 93.38 l 476.33,553.33 c 13.77,15.64 27.04,32.62 39.8,51.6 12.76,18.98 25.26,40.29 37.76,64.59 -3.58,-25.64 -6.13,-51.27 -7.91,-77.24 -1.79,-25.97 -2.55,-52.94 -2.55,-80.9 V 6999.91 H 11880 v 846.97 h -83.69 l -486.02,-560.98 c -16.84,-20.98 -31.38,-40.62 -43.63,-59.26 -12.24,-18.32 -22.96,-37.29 -32.4,-56.93 z m 940.66,677.17 h -122.46 v -844.97 h 122.46 z m 732.74,-721.12 h -453.12 v 593.28 h 453.12 v -201.76 l 122.46,30.3 v 99.21 c 0,77.57 -10.97,130.17 -33.17,158.14 -22.19,27.97 -64.29,41.95 -126.03,41.95 h -381.17 c -61.74,0 -103.58,-13.65 -125.27,-40.62 -21.68,-26.96 -32.4,-79.9 -32.4,-159.47 V 7201 c 0,-78.57 10.97,-131.84 32.91,-159.47 21.94,-27.63 63.53,-41.62 124.76,-41.62 h 381.17 c 61.74,0 103.84,14.32 126.03,42.62 22.2,28.3 33.17,80.9 33.17,158.47 v 80.24 l -122.46,26.3 z m 152.82,721.12 375.04,-846.97 h 112 l 383.97,846.97 h -132.92 l -84.45,-197.76 h -448.26 l -82.92,197.76 z m 256.91,-319.61 h 344.43 l -172.47,-403.17 z m 1488.18,191.77 h 541.9 v -593.28 h -541.9 z M 14683.11,7201 c 0,-77.57 11.22,-130.51 33.68,-158.8 22.45,-28.3 64.03,-42.29 125.52,-42.29 h 468.42 c 61.49,0 103.08,13.99 125.53,42.29 22.45,28.29 33.67,81.23 33.67,158.8 v 445.79 c 0,77.57 -10.97,130.17 -33.16,158.14 -22.2,27.97 -64.3,41.95 -126.04,41.95 h -468.42 c -62.25,0 -104.35,-13.98 -126.29,-41.62 -21.94,-27.63 -32.91,-80.23 -32.91,-158.47 z m 1357.55,-75.24 h -237.53 v 593.28 h 237.53 c 105.62,0 180.63,-23.31 225.28,-69.92 44.65,-46.28 66.84,-122.85 66.84,-229.72 0,-103.87 -22.45,-179.11 -67.61,-224.72 -45.15,-45.95 -119.91,-68.92 -224.51,-68.92 z m 13.52,-125.85 c 61.74,0 113.53,5.33 155.63,15.98 42.1,10.99 76.79,27.3 104.35,49.28 44.14,36.62 78.83,86.22 103.84,148.82 24.74,62.92 37.25,131.84 37.25,207.41 0,142.49 -33.17,249.03 -99.25,319.61 -66.33,70.58 -166.86,105.87 -301.82,105.87 h -373.51 v -846.97 z m 674.56,719.13 h 541.9 v -593.28 h -541.9 z M 16606.28,7201 c 0,-77.57 11.22,-130.51 33.68,-158.8 22.45,-28.3 64.03,-42.29 125.52,-42.29 h 468.42 c 61.49,0 103.08,13.99 125.53,42.29 22.45,28.29 33.67,81.23 33.67,158.8 v 445.79 c 0,77.57 -10.97,130.17 -33.16,158.14 -22.2,27.97 -64.3,41.95 -126.04,41.95 h -468.42 c -62.25,0 -104.35,-13.98 -126.29,-41.62 -21.94,-27.63 -32.91,-80.23 -32.91,-158.47 z m 1051.39,-31.29 c 3.06,24.63 5.1,49.6 6.63,75.24 1.54,25.3 2.3,50.6 2.3,75.91 v 526.02 h -113.28 v -846.97 h 93.38 l 476.33,553.33 c 13.78,15.64 27.04,32.62 39.8,51.6 12.76,18.98 25.26,40.29 37.76,64.59 -3.57,-25.64 -6.12,-51.27 -7.91,-77.24 -1.79,-25.97 -2.55,-52.94 -2.55,-80.9 v -511.38 h 113.28 v 846.97 h -83.68 L 17733.7,7285.9 c -16.84,-20.98 -31.38,-40.62 -43.63,-59.26 -12.24,-18.32 -22.96,-37.29 -32.4,-56.93 z m 1133.55,-43.95 v 721.12 h -122.47 v -721.12 h -306.16 v -125.85 h 736.31 v 125.85 z m 473.77,593.28 h 541.9 v -593.28 h -541.9 z M 19142.53,7201 c 0,-77.57 11.22,-130.51 33.67,-158.8 22.46,-28.3 64.04,-42.29 125.53,-42.29 h 468.42 c 61.49,0 103.07,13.99 125.52,42.29 22.46,28.29 33.68,81.23 33.68,158.8 v 445.79 c 0,77.57 -10.97,130.17 -33.17,158.14 -22.19,27.97 -64.29,41.95 -126.03,41.95 h -468.42 c -62.25,0 -104.35,-13.98 -126.29,-41.62 -21.94,-27.63 -32.91,-80.23 -32.91,-158.47 z m 947.04,645.88 v -846.97 h 122.46 v 719.13 h 505.16 v 127.84 z m 801.87,-127.84 h 541.9 v -593.28 h -541.9 z M 20768.98,7201 c 0,-77.57 11.22,-130.51 33.68,-158.8 22.45,-28.3 64.03,-42.29 125.52,-42.29 h 468.42 c 61.49,0 103.08,13.99 125.52,42.29 22.46,28.29 33.68,81.23 33.68,158.8 v 445.79 c 0,77.57 -10.97,130.17 -33.16,158.14 -22.2,27.97 -64.3,41.95 -126.04,41.95 h -468.42 c -62.25,0 -104.35,-13.98 -126.29,-41.62 -21.94,-27.63 -32.91,-80.23 -32.91,-158.47 z m 290.85,-308.96 156.14,-339.58 h 133.18 l -209.98,339.58 z m 1276.16,233.72 h -512.81 v 593.28 h 512.81 v -229.72 h -264.83 v -115.86 h 387.29 v 273.66 c 0,77.24 -10.97,129.84 -33.17,157.81 -22.19,27.97 -64.29,41.95 -126.03,41.95 h -439.59 c -61.49,0 -103.58,-13.65 -125.78,-41.28 -22.19,-27.64 -33.17,-80.57 -33.17,-158.48 v -445.79 c 0,-77.57 11.23,-130.5 33.68,-158.8 22.45,-28.3 64.04,-42.62 125.27,-42.62 h 439.59 c 60.21,0 101.8,13.99 124.76,41.95 22.96,27.97 34.44,77.24 34.44,147.82 v 24.31 l -122.46,27.63 z m 388.56,721.12 h -122.46 v -844.97 h 122.46 z m 732.73,-721.12 h -453.11 v 593.28 h 453.11 v -201.76 l 122.47,30.3 v 99.21 c 0,77.57 -10.98,130.17 -33.17,158.14 -22.2,27.97 -64.29,41.95 -126.04,41.95 h -381.16 c -61.74,0 -103.59,-13.65 -125.27,-40.62 -21.69,-26.96 -32.4,-79.9 -32.4,-159.47 V 7201 c 0,-78.57 10.97,-131.84 32.91,-159.47 21.94,-27.63 63.53,-41.62 124.76,-41.62 h 381.16 c 61.75,0 103.84,14.32 126.04,42.62 22.19,28.3 33.17,80.9 33.17,158.47 v 80.24 l -122.47,26.3 z m 152.82,721.12 375.05,-846.97 h 112 l 383.97,846.97 h -132.92 l -84.45,-197.76 h -448.27 l -82.91,197.76 z m 256.92,-319.61 h 344.43 l -172.47,-403.17 z"
            id="path18" />
            <path
            class="fil4"
            d="m 16805.5,8299.06 c 3.11,-24.87 13.21,-42.75 30.3,-53.63 17.09,-10.88 33.42,-16.31 48.95,-16.31 211.37,0 409.52,-7 594.46,-20.99 184.95,-13.98 330.26,-20.98 435.93,-20.98 264.2,0 485.68,26.43 664.39,79.27 178.73,52.83 323.26,135.2 433.61,247.1 110.34,111.9 188.83,256.44 235.45,433.6 46.63,177.18 69.94,390.1 69.94,638.75 0,251.77 -25.65,498.11 -76.94,738.99 -51.28,240.89 -140.64,454.59 -268.08,641.09 -127.45,186.49 -299.17,336.46 -515.2,449.92 -216.03,113.44 -488.77,170.17 -818.24,170.17 -152.31,0 -291.41,-3.1 -417.29,-9.32 -125.88,-6.21 -233.89,-24.87 -324.04,-55.96 -90.13,-31.07 -160.07,-77.7 -209.8,-139.86 -49.73,-62.17 -74.6,-147.64 -74.6,-256.43 0,-40.42 2.33,-101.03 6.99,-181.83 4.67,-80.82 10.88,-177.18 18.65,-289.07 7.76,-111.91 17.09,-235.46 27.97,-370.67 10.88,-135.2 22.54,-277.41 34.97,-426.6 24.87,-307.73 44.3,-553.28 58.28,-736.66 13.99,-183.4 23.32,-327.15 27.97,-431.28 4.67,-104.13 7.78,-182.61 9.33,-235.45 1.55,-52.84 3.88,-104.12 7,-153.85 z m 867.2,2550.32 c 174.07,0 313.16,-37.29 417.29,-111.89 104.12,-74.61 184.16,-169.4 240.11,-284.41 55.94,-115 93.24,-240.89 111.9,-377.65 18.65,-136.77 27.97,-265.76 27.97,-386.98 0,-130.55 -8.54,-244.79 -25.65,-342.69 -17.09,-97.91 -46.62,-179.5 -88.58,-244.78 -41.96,-65.27 -100.24,-114.22 -174.84,-146.86 -74.6,-32.64 -167.85,-48.96 -279.74,-48.96 -34.2,0 -77.71,1.56 -130.55,4.66 -52.84,3.12 -116.56,7.78 -191.15,13.99 -6.23,115.01 -14,250.99 -23.32,407.96 -9.32,156.97 -19.43,321.71 -30.31,494.22 -10.88,172.5 -22.53,346.57 -34.97,522.18 -12.43,175.62 -24.86,338.03 -37.29,487.23 46.62,6.21 88.59,10.1 125.89,11.66 37.3,1.55 68.37,2.32 93.24,2.32 z m 2531.68,690.04 c -174.07,0 -298.39,-34.19 -372.99,-102.57 -74.6,-68.38 -111.89,-166.29 -111.89,-293.74 0,-62.16 4.65,-168.62 13.98,-319.37 9.33,-150.75 21.76,-322.48 37.3,-515.2 15.54,-192.71 31.09,-396.3 46.62,-610.76 15.54,-214.48 31.08,-416.52 46.63,-606.12 15.54,-189.6 27.97,-355.9 37.3,-498.88 9.33,-142.98 13.98,-240.89 13.98,-293.72 0,-46.63 24.87,-69.94 74.6,-69.94 h 1641.16 c 18.65,0 35.75,4.65 51.29,13.98 15.54,9.33 23.31,26.42 23.31,51.29 l -18.64,275.08 c -6.22,93.25 -31.87,168.62 -76.94,226.13 -45.07,57.5 -137.54,86.25 -277.41,86.25 h -643.41 l -46.63,657.4 h 662.07 c 18.64,0 35.74,4.66 51.28,13.99 15.54,9.32 23.31,26.42 23.31,51.29 l -18.64,275.08 c -6.22,93.24 -31.86,168.62 -76.94,226.12 -45.07,57.5 -137.53,86.25 -277.41,86.25 h -405.62 l -51.3,694.7 h 1025.73 c 18.66,0 35.75,5.44 51.3,16.32 15.53,10.88 23.3,27.2 23.3,48.95 l -18.65,275.09 c -6.22,93.25 -31.86,168.62 -76.92,226.13 -45.07,57.5 -137.55,86.25 -277.41,86.25 z m 3939.73,0 c -127.45,0 -222.25,-18.66 -284.42,-55.96 -62.16,-37.29 -107.23,-83.92 -135.2,-139.86 -161.64,-332.59 -313.16,-651.18 -454.59,-955.79 -141.42,-304.62 -285.18,-612.33 -431.26,-923.16 3.1,335.69 7.76,669.84 13.98,1002.41 6.21,332.59 12.43,666.72 18.64,1002.42 0,46.63 -24.86,69.94 -74.59,69.94 h -256.43 c -177.18,0 -302.28,-34.97 -375.32,-104.91 -73.05,-69.93 -109.57,-173.28 -109.57,-310.04 0,-37.3 2.33,-100.25 6.99,-188.83 4.67,-88.58 11.65,-193.49 20.98,-314.71 9.33,-121.23 19.43,-254.1 30.31,-398.64 10.87,-144.53 22.53,-291.4 34.96,-440.6 18.66,-236.22 34.19,-432.04 46.63,-587.46 12.43,-155.41 22.53,-286.74 30.31,-393.97 7.76,-107.24 13.21,-198.93 16.31,-275.09 3.11,-76.15 6.22,-151.52 9.33,-226.11 0,-46.63 24.87,-69.94 74.6,-69.94 h 372.99 c 102.57,0 186.49,11.65 251.77,34.97 65.27,23.31 118.89,55.16 160.85,95.58 41.97,40.4 75.37,86.25 100.24,137.53 24.86,51.29 48.18,104.91 69.94,160.85 74.59,192.71 140.65,359.01 198.15,498.89 57.5,139.86 108.02,262.64 151.53,368.32 43.52,105.68 81.59,197.38 114.23,275.08 32.63,77.71 62.94,149.2 90.91,214.48 27.97,65.27 55.95,128.21 83.93,188.82 27.97,60.61 57.5,126.66 88.58,198.16 0,-183.39 -0.78,-372.22 -2.33,-566.49 -1.55,-194.26 -3.11,-383.87 -4.66,-568.81 -1.55,-184.94 -3.11,-362.89 -4.67,-533.84 -1.55,-170.96 -2.33,-324.82 -2.33,-461.59 0,-27.97 26.42,-41.95 79.27,-41.95 h 256.43 c 102.58,0 184.16,10.1 244.77,30.3 60.61,20.2 108.01,49.74 142.21,88.59 34.19,38.85 56.72,86.25 67.6,142.21 10.88,55.94 16.32,119.65 16.32,191.14 0,77.72 -4.66,196.61 -13.99,356.68 -9.32,160.08 -20.2,339.58 -32.64,538.5 -12.43,198.94 -26.41,404.86 -41.95,617.78 -15.55,212.91 -30.31,409.52 -44.3,589.78 -13.98,180.28 -26.42,333.37 -37.3,459.25 -10.88,125.89 -17.88,199.71 -20.98,221.47 0,24.87 -8.54,43.51 -25.64,55.94 -17.09,12.44 -36.52,18.66 -58.28,18.66 z m 2629.59,-2657.57 -177.17,2587.63 c -3.11,46.63 -20.21,69.94 -51.29,69.94 h -256.43 c -174.07,0 -298.39,-34.19 -372.99,-102.57 -74.6,-68.38 -111.91,-166.29 -111.91,-293.74 0,-46.62 2.34,-116.55 7,-209.8 4.66,-93.25 11.66,-202.82 20.99,-328.7 9.32,-125.89 19.42,-262.65 30.3,-410.29 10.88,-147.65 22.53,-296.84 34.97,-447.59 12.43,-150.76 24.08,-300.72 34.96,-449.93 10.88,-149.19 20.99,-287.5 30.32,-414.95 h -745.99 c -34.19,0 -51.28,-21.76 -51.28,-65.27 l 13.98,-261.1 c 3.11,-40.4 10.11,-80.04 20.97,-118.89 10.88,-38.85 28.76,-73.82 53.63,-104.91 24.86,-31.07 56.73,-55.94 95.58,-74.59 38.85,-18.65 86.25,-27.97 142.2,-27.97 h 2084.09 c 18.65,0 35.74,4.65 51.28,13.98 15.55,9.33 23.32,26.42 23.32,51.29 l -18.65,275.08 c -6.22,93.25 -31.86,168.62 -76.93,226.13 -45.07,57.5 -137.54,86.25 -277.42,86.25 z"
            id="path20" />
          </g>
        </svg>