<?xml version="1.0" encoding="UTF-8"?>
<!DOCTYPE svg PUBLIC "-//W3C//DTD SVG 1.1//EN" "http://www.w3.org/Graphics/SVG/1.1/DTD/svg11.dtd">
<!-- Creator: CorelDRAW 2018 (64 Bit) -->
<svg xmlns="http://www.w3.org/2000/svg" xml:space="preserve" width="40mm" height="12mm" version="1.1" style="shape-rendering:geometricPrecision; text-rendering:geometricPrecision; image-rendering:optimizeQuality; fill-rule:evenodd; clip-rule:evenodd"
viewBox="0 0 4000 1200"
 xmlns:xlink="http://www.w3.org/1999/xlink"
 xmlns:dc="http://purl.org/dc/elements/1.1/"
 xmlns:cc="http://creativecommons.org/ns#"
 xmlns:rdf="http://www.w3.org/1999/02/22-rdf-syntax-ns#"
 xmlns:svg="http://www.w3.org/2000/svg"
 xmlns:sodipodi="http://sodipodi.sourceforge.net/DTD/sodipodi-0.dtd"
 xmlns:inkscape="http://www.inkscape.org/namespaces/inkscape"
 sodipodi:docname="logo.svg"
 inkscape:version="1.0 (4035a4fb49, 2020-05-01)">
 <defs>
  <style type="text/css">
   <![CDATA[
    .str0 {stroke:#10846F;stroke-width:22.69;stroke-miterlimit:22.9256}
    .fil2 {fill:none}
    .fil0 {fill:#FEFEFE}
    .fil4 {fill:#10846F}
    .fil3 {fill:white}
    .fil1 {fill:#FEFEFE;fill-rule:nonzero}
   ]]>
  </style>
 </defs>
 <g id="Capa_x0020_1">
  <metadata id="CorelCorpID_0Corel-Layer"/>
  <sodipodi:namedview inkscape:document-rotation="0" pagecolor="#ffffff" bordercolor="#666666" borderopacity="1" objecttolerance="10" gridtolerance="10" guidetolerance="10" inkscape:pageopacity="0" inkscape:pageshadow="2" inkscape:window-width="1366" inkscape:window-height="705" id="namedview25" showgrid="false" inkscape:zoom="0.47930335" inkscape:cx="301.39198" inkscape:cy="48.607085" inkscape:window-x="-8" inkscape:window-y="-8" inkscape:window-maximized="1" inkscape:current-layer="Capa_x0020_1"/>
 </g>
 <g id="Capa_x0020_1_0">
  <metadata id="CorelCorpID_1Corel-Layer"/>
  <path id="path7" class="fil0" d="M1039.9 672.94l-13.4 193.25c-0.47,3.76 -0.82,6.47 -1.06,8.11 -0.23,1.65 -2.47,2.47 -6.7,2.47l-38.78 -0.01c-26.33,0 -45.14,-5.17 -56.42,-15.52 -11.28,-10.34 -16.93,-25.15 -16.93,-44.43 0,-9.4 0.7,-25.51 2.11,-48.31 1.41,-22.8 3.29,-48.78 5.64,-77.93 2.35,-29.15 4.7,-59.95 7.05,-92.39 2.35,-32.44 4.7,-63.01 7.05,-91.69 2.35,-28.68 4.23,-53.84 5.64,-75.47 1.41,-21.63 2.11,-36.44 2.11,-44.43 0,-7.05 3.76,-10.58 11.28,-10.58l248.28 0c2.82,0 5.41,0.7 7.76,2.11 2.35,1.41 3.53,4 3.53,7.76l-2.82 41.61c-0.94,14.11 -4.82,25.51 -11.64,34.21 -6.82,8.7 -20.81,13.05 -41.96,13.05l-97.34 0 -7.05 99.45 100.15 0c2.82,0 5.41,0.7 7.76,2.12 2.35,1.41 3.53,4 3.53,7.76l-2.82 41.61c-0.94,14.1 -4.82,25.51 -11.64,34.21 -6.82,8.7 -20.8,13.05 -41.96,13.05l-61.37 -0.01zm393.55 -296.93c11.76,0 21.51,2.23 29.27,6.7 7.76,4.47 14.22,10.34 19.4,17.63 5.17,7.29 9.4,15.63 12.69,25.04 3.29,9.4 6.11,19.04 8.46,28.92 18.81,76.17 34.32,138.94 46.55,188.31 12.23,49.37 21.86,89.22 28.92,119.55 7.05,30.33 11.99,52.78 14.81,67.35 2.82,14.57 4.23,24.69 4.23,30.33 0,6.58 -1.53,11.05 -4.58,13.4 -3.06,2.35 -7.88,3.53 -14.46,3.53l-35.97 -0.01c-20.22,0 -36.32,-2.47 -48.31,-7.41 -11.99,-4.94 -21.16,-12.11 -27.51,-21.51 -6.35,-9.4 -10.93,-20.81 -13.75,-34.21 -2.82,-13.4 -5.17,-28.56 -7.05,-45.49l-122.72 0.01 -23.27 97.33c-2.35,7.52 -7.76,11.28 -16.22,11.28l-37.39 0c-7.52,0 -15.28,-0.82 -23.27,-2.47 -7.99,-1.65 -15.16,-4.35 -21.51,-8.11 -6.35,-3.76 -11.64,-8.58 -15.87,-14.46 -4.23,-5.88 -6.35,-13.05 -6.35,-21.51 0,-10.35 3.29,-27.27 9.87,-50.78 6.58,-23.51 14.93,-50.19 25.04,-80.05 10.11,-29.86 21.39,-61.13 33.85,-93.8 12.46,-32.68 24.57,-63.59 36.32,-92.75 11.75,-29.15 22.45,-54.78 32.09,-76.88 9.64,-22.1 17.05,-37.61 22.22,-46.55 3.76,-6.58 7.17,-10.46 10.23,-11.64 3.06,-1.18 8.82,-1.76 17.28,-1.76l67 0.01zm-84.63 289.87l81.11 0 -29.62 -186.2 -51.49 186.2zm372.39 210.88c-26.33,0 -45.14,-5.17 -56.42,-15.52 -11.28,-10.34 -16.93,-25.15 -16.93,-44.43 0,-9.4 0.7,-25.51 2.11,-48.31 1.41,-22.8 3.29,-48.78 5.64,-77.93 2.35,-29.15 4.7,-59.95 7.05,-92.39 2.35,-32.44 4.7,-63.01 7.05,-91.69 2.35,-28.68 4.23,-53.84 5.64,-75.47 1.41,-21.63 2.12,-36.44 2.12,-44.43 0,-7.05 3.76,-10.58 11.28,-10.58l38.8 0c28.68,0 47.96,6.11 57.83,18.34 9.87,12.23 14.81,30.33 14.81,54.31 0,2.35 -0.35,9.87 -1.06,22.57 -0.7,12.69 -1.76,28.68 -3.17,47.96 -1.41,19.28 -2.94,40.79 -4.59,64.53 -1.65,23.74 -3.29,48.08 -4.94,73 -1.65,24.92 -3.29,49.25 -4.94,73 -1.65,23.74 -3.17,45.26 -4.59,64.53 -1.41,19.28 -2.59,35.38 -3.53,48.31 -0.94,12.93 -1.65,20.81 -2.12,23.63 -0.47,3.76 -1.41,6.47 -2.82,8.11 -1.41,1.65 -4.23,2.47 -8.47,2.47l-38.75 -0.01zm221.46 0c-26.8,0 -45.73,-5.29 -56.78,-15.87 -11.05,-10.58 -16.57,-26.21 -16.57,-46.9 0,-5.64 0.35,-15.16 1.06,-28.56 0.71,-13.4 1.76,-29.27 3.18,-47.61 1.41,-18.34 2.94,-38.44 4.59,-60.3 1.64,-21.86 3.41,-44.08 5.29,-66.65 3.76,-47.49 6.47,-86.04 8.11,-115.67 1.65,-29.62 2.94,-52.9 3.88,-69.82 1.41,-21.16 2.82,-34.68 4.23,-40.55 1.41,-5.88 4.47,-8.82 9.17,-8.82 14.58,0 29.51,-0.35 44.79,-1.06 15.28,-0.7 29.97,-1.53 44.08,-2.47 14.11,-0.94 27.39,-1.76 39.85,-2.47 12.46,-0.71 23.63,-1.06 33.5,-1.06 30.09,0 55.95,3.76 77.58,11.28 21.63,7.52 39.14,18.1 52.54,31.74 13.4,13.64 23.27,30.09 29.62,49.37 6.35,19.28 9.52,40.91 9.52,64.89 0,36.67 -7.29,69.35 -21.86,98.03 -14.57,28.68 -37.85,50.54 -69.82,65.59l59.24 84.63c10.81,15.99 19.04,28.33 24.68,37.03 5.64,8.7 8.47,15.16 8.47,19.4 0,3.29 -2,7.88 -5.99,13.75 -4,5.88 -9.87,11.76 -17.63,17.63 -7.76,5.88 -17.16,10.93 -28.21,15.16 -11.05,4.23 -23.39,6.35 -37.03,6.35 -15.05,0 -28.09,-4.94 -39.14,-14.81 -11.05,-9.87 -20.92,-22.92 -29.62,-39.14 -8.7,-16.22 -16.22,-34.91 -22.57,-56.07 -6.35,-21.16 -12.34,-43.26 -17.98,-66.3 -16.93,-0.94 -30.8,-2.59 -41.61,-4.94 -1.41,20.69 -2.82,40.44 -4.23,59.24 -1.41,18.81 -2.59,35.62 -3.53,50.43 -0.94,14.81 -1.88,27.04 -2.82,36.68 -0.94,9.64 -1.41,15.4 -1.41,17.28 -0.47,3.76 -1.41,6.47 -2.82,8.11 -1.41,1.65 -4.23,2.47 -8.46,2.47l-35.3 0.01zm114.25 -402.01c-5.64,0 -11.99,0.35 -19.04,1.06 -7.05,0.7 -14.58,1.53 -22.57,2.47 -0.94,16.46 -2,36.09 -3.18,58.89 -1.18,22.81 -2.7,47.14 -4.59,73 16.46,3.76 30.8,5.64 43.02,5.64 14.58,0 26.45,-2.82 35.62,-8.46 9.17,-5.64 16.34,-12.58 21.51,-20.81 5.17,-8.23 8.58,-17.04 10.23,-26.45 1.65,-9.4 2.47,-17.87 2.47,-25.39 0,-19.28 -4.7,-34.09 -14.11,-44.43 -9.4,-10.34 -25.86,-15.52 -49.37,-15.52l0.01 0z"/>
  <path id="path9" class="fil1" d="M2529.63 1028.16l11.48 0 -2753.32 0c6.59,0 9.9,2.85 9.9,8.56 0,3.55 -1.34,6.59 -4.04,9.05 -2.67,2.46 -6.01,3.7 -9.96,3.7l-2.31 0.01 -11.9 0 -17.28 42.6c-11.96,29.42 -29.7,44.12 -53.2,44.12 -12.27,0 -22.44,-3.95 -30.52,-11.87 -8.05,-7.93 -12.08,-17.91 -12.08,-29.94 0,-9.38 2.4,-18.34 7.17,-26.9 4.77,-8.53 11.45,-15.88 20.04,-22.04 7.32,-5.16 15.79,-9.26 25.51,-12.3 9.69,-3.01 19.25,-4.52 28.69,-4.52l12.54 -0.36 3.92 -0.09 17.06 -43 0.97 -2.49c1.37,-3.67 3.1,-6.13 5.22,-7.35 2.1,-1.21 5.65,-1.82 10.63,-1.82l45.64 -0.01c8.17,0 12.27,2.91 12.27,8.74 0,3.43 -1.37,6.41 -4.07,8.87 -2.7,2.46 -6.01,3.7 -9.9,3.7l-2.4 0 -82.2 0 2782.14 33.34zm-32.49 21.32l-4.8 0c-17.52,0 -31.55,4.01 -42.02,12.02 -11.75,8.96 -17.61,19.1 -17.61,30.36 0,6.07 1.85,11.14 5.56,15.24 3.7,4.1 8.32,6.13 13.82,6.13 12.81,0 23.32,-10.17 31.55,-30.55l13.5 -33.2zm131.84 26.23l9.81 0c7.5,0 11.27,2.61 11.27,7.8 0,3.58 -1.34,6.41 -4.01,8.44 -2.7,2.03 -6.38,3.07 -11.08,3.07l-11.39 0.01c-5.1,0 -8.59,-1.97 -10.41,-5.95 -4.46,3.98 -8.75,5.95 -12.91,5.95l-10.15 0c-6.53,0 -11.81,-2.34 -15.85,-6.98 -4.01,-4.65 -6.01,-10.72 -6.01,-18.25 0,-11.39 3.95,-21.56 11.81,-30.55 7.86,-8.96 16.76,-13.45 26.66,-13.45 7.62,0 13.15,2.58 16.67,7.77 2.98,-4.46 6.86,-6.68 11.66,-6.68 2.61,0 4.8,0.82 6.56,2.49 1.73,1.67 2.61,3.73 2.61,6.16 0,1.67 -0.49,3.67 -1.43,5.98l-0.97 2.4 -12.84 31.79zm-32.28 0.37l2.22 0c4.89,0 8.14,-2 9.75,-5.98l6.26 -15.39c0.82,-2.03 1.24,-3.7 1.24,-5.07 0,-1.61 -0.79,-3.01 -2.37,-4.19 -1.58,-1.19 -3.49,-1.79 -5.68,-1.79 -4.37,0 -8.62,2.52 -12.72,7.56 -4.13,5.07 -6.19,10.29 -6.19,15.7 0,6.1 2.49,9.17 7.5,9.17l-0.01 -0.01zm100.81 -49.19c2.64,-0.73 5.01,-1.09 7.11,-1.09 6.86,0 12.45,2.55 16.7,7.68 4.28,5.13 6.41,11.78 6.41,19.95 0,15.82 -6.1,28.15 -18.31,36.98 -4.28,3.07 -8.71,4.62 -13.33,4.62l-8.47 0c-5.86,0 -10.87,-2.1 -15.03,-6.32 -2.46,4.22 -6.38,6.32 -11.69,6.32 -2.55,0 -4.71,-0.82 -6.47,-2.49 -1.79,-1.67 -2.67,-3.67 -2.67,-6.04 0,-1.79 0.49,-3.86 1.43,-6.16l0.97 -2.4 37.2 -91.98 0.97 -2.49c2.79,-6.65 7.07,-9.96 12.87,-9.96 2.67,0 4.89,0.82 6.71,2.46 1.79,1.61 2.7,3.61 2.7,5.98 0,1.85 -0.49,3.89 -1.43,6.16l-0.97 2.49 -14.7 36.29zm-17.7 43.63c2.94,3.83 6.44,5.74 10.41,5.74 2.85,0 5.25,-0.79 7.23,-2.4 2.73,-2.19 5.1,-5.44 7.17,-9.75 2.03,-4.31 3.07,-8.17 3.07,-11.6 0,-2.67 -0.76,-4.83 -2.31,-6.53 -1.55,-1.67 -3.58,-2.52 -6.07,-2.52 -5.65,0 -10.14,4.16 -13.54,12.48l-5.96 14.58zm74.88 -24.14l-3.01 7.5c-2.73,6.65 -6.29,9.99 -10.66,9.99 -2.64,0 -4.86,-0.79 -6.62,-2.4 -1.79,-1.61 -2.67,-3.61 -2.67,-5.98 0,-1.37 0.64,-3.67 1.94,-6.95l10.05 -24.87c2.4,-5.98 5.83,-8.99 10.29,-8.99 4.37,0 7.05,2.06 8.08,6.23l0.7 2.76c0.36,1.43 0.88,2.34 1.61,2.67 0.7,0.36 2.43,0.55 5.22,0.55l20.84 0c7.74,0 11.6,2.73 11.6,8.2 0,7.53 -4.92,11.3 -14.73,11.3l-0.97 0.88c-9.32,9.08 -14,16.09 -14,21.04 0,4.95 2.67,7.41 8.02,7.41l11.23 -0.01c7.56,0 11.36,2.61 11.36,7.8 0,3.64 -1.34,6.5 -3.98,8.5 -2.64,2 -6.35,3.01 -11.11,3.01l-17.46 0.01c-5.89,0 -10.72,-2.03 -14.48,-6.13 -3.73,-4.1 -5.62,-9.44 -5.62,-15.97 0,-4.16 1,-8.2 3.01,-12.12 2,-3.92 5.56,-8.72 10.63,-14.42l-9.27 -0.01zm76.86 29.33l10.05 0c7.44,0 11.14,2.64 11.14,7.89 0,3.58 -1.3,6.41 -3.95,8.41 -2.61,2 -6.29,3.01 -11.02,3.01l-14.15 0.01c-5.22,0 -9.32,-1.06 -12.3,-3.22 -3.01,-2.13 -4.49,-5.04 -4.49,-8.71 0,-1.97 0.64,-4.46 1.88,-7.47l14.7 -36.16 0.97 -2.52c2.73,-6.71 7.11,-10.05 13.18,-10.05 2.49,0 4.65,0.82 6.47,2.49 1.79,1.67 2.7,3.67 2.7,5.98 0,1.91 -0.79,4.83 -2.4,8.74l-12.78 31.6zm11.72 -77.24c3.46,0 6.38,1.21 8.78,3.61 2.4,2.4 3.61,5.31 3.61,8.78 0,3.43 -1.21,6.38 -3.61,8.78 -2.4,2.4 -5.31,3.61 -8.78,3.61 -3.43,0 -6.38,-1.21 -8.78,-3.61 -2.4,-2.4 -3.61,-5.34 -3.61,-8.78 0,-3.46 1.21,-6.38 3.61,-8.78 2.4,-2.4 5.35,-3.61 8.78,-3.61zm63.88 96.56l-25.81 0c-7.41,0 -13.48,-2.61 -18.13,-7.83 -4.68,-5.19 -7.01,-11.96 -7.01,-20.25 0,-11.08 3.83,-20.71 11.48,-28.88 7.65,-8.17 16.64,-12.27 26.96,-12.27 7.01,0 12.72,1.97 17.1,5.89 4.4,3.92 6.59,9.02 6.59,15.3 0,4.4 -1.09,8.02 -3.28,10.84 -2.19,2.82 -5.01,4.22 -8.41,4.22 -5.44,0 -8.17,-2.55 -8.17,-7.65 0,-0.76 0,-1.4 0,-1.94 0,-0.64 0,-1.28 0,-1.85 0,-4.16 -2.06,-6.22 -6.16,-6.22 -3.86,0 -7.38,2.03 -10.57,6.13 -3.19,4.07 -4.77,8.62 -4.77,13.66 0,4.19 1.31,7.17 3.89,8.93 2.61,1.73 7.01,2.61 13.21,2.61l16.82 -0.01c7.5,0 11.27,2.64 11.27,7.89 0,3.52 -1.34,6.32 -4.04,8.35 -2.7,2.03 -6.35,3.07 -10.96,3.07l-0.01 0.01zm79.07 -19.32l9.81 0c7.5,0 11.27,2.61 11.27,7.8 0,3.58 -1.34,6.41 -4.01,8.44 -2.7,2.03 -6.38,3.07 -11.08,3.07l-11.39 0.01c-5.1,0 -8.59,-1.97 -10.41,-5.95 -4.46,3.98 -8.74,5.95 -12.9,5.95l-10.15 0c-6.53,0 -11.81,-2.34 -15.85,-6.98 -4.01,-4.65 -6.01,-10.72 -6.01,-18.25 0,-11.39 3.95,-21.56 11.81,-30.55 7.86,-8.96 16.76,-13.45 26.66,-13.45 7.62,0 13.15,2.58 16.67,7.77 2.98,-4.46 6.86,-6.68 11.66,-6.68 2.61,0 4.8,0.82 6.56,2.49 1.73,1.67 2.61,3.73 2.61,6.16 0,1.67 -0.49,3.67 -1.43,5.98l-0.97 2.4 -12.85 31.79zm-32.27 0.37l2.21 0c4.89,0 8.14,-2 9.75,-5.98l6.26 -15.39c0.82,-2.03 1.24,-3.7 1.24,-5.07 0,-1.61 -0.79,-3.01 -2.37,-4.19 -1.58,-1.19 -3.49,-1.79 -5.68,-1.79 -4.37,0 -8.62,2.52 -12.72,7.56 -4.13,5.07 -6.19,10.29 -6.19,15.7 0,6.1 2.49,9.17 7.5,9.17l0 -0.01zm163.69 -0.37l10.57 0c7.5,0 11.23,2.64 11.23,7.89 0,3.58 -1.31,6.41 -3.95,8.41 -2.64,2 -6.32,3.01 -11.02,3.01l-18.03 0.01c-3.89,0 -7.05,-1.03 -9.47,-3.1 -2.4,-2.1 -3.61,-4.8 -3.61,-8.2 0,-2.31 0.79,-5.44 2.37,-9.41l8.23 -20.34c0.46,-1.18 0.7,-2.28 0.7,-3.28 0,-3.86 -1.94,-5.77 -5.86,-5.77 -3.01,0 -6.01,1.37 -8.96,4.1 -2.95,2.7 -5.31,6.32 -7.11,10.84l-9.93 24.54c-3.25,7.93 -7.99,11.9 -14.21,11.9 -2.43,0 -4.49,-0.79 -6.19,-2.4 -1.73,-1.61 -2.58,-3.49 -2.58,-5.68 0,-1.73 0.46,-3.73 1.34,-6.04l0.97 -2.43 10.02 -24.78c0.88,-2.19 1.34,-3.92 1.34,-5.16 0,-1.31 -0.61,-2.46 -1.79,-3.43 -1.18,-0.97 -2.58,-1.46 -4.16,-1.46 -6.41,0 -11.51,4.62 -15.24,13.88l-10.41 25.51c-3.25,7.99 -7.99,11.99 -14.15,11.99 -2.43,0 -4.52,-0.79 -6.29,-2.37 -1.73,-1.58 -2.61,-3.49 -2.61,-5.74 0,-1.79 0.46,-3.8 1.34,-6.07l0.97 -2.4 17.73 -43.66c2.49,-6.1 6.23,-9.17 11.2,-9.17 5.16,0 8.35,2.43 9.63,7.32 4.01,-3.4 7.29,-5.65 9.81,-6.74 2.52,-1.12 5.62,-1.67 9.29,-1.67 7.96,0 13.91,3.43 17.88,10.29 6.65,-6.86 14.12,-10.29 22.41,-10.29 5.68,0 10.41,1.64 14.24,4.95 3.83,3.28 5.74,7.32 5.74,12.15 0,3.01 -0.64,6.13 -1.94,9.32l-9.5 23.48zm66.38 -49.92c8.59,0 15.67,2.73 21.2,8.17 5.56,5.47 8.32,12.39 8.32,20.8 0,6.35 -1.46,12.63 -4.34,18.89 -2.91,6.26 -6.68,11.24 -11.3,14.97 -3.1,2.43 -6.29,4.1 -9.56,5.04 -3.28,0.91 -7.89,1.37 -13.82,1.37 -9.69,0 -16.18,-1.15 -19.58,-3.46 -7.93,-5.47 -11.9,-13.51 -11.9,-24.17 0,-11.27 4.07,-21.01 12.18,-29.24 8.14,-8.23 17.73,-12.36 28.82,-12.36l-0.02 -0.01zm-2.16 18.95c-4.37,0 -8.35,2.16 -11.93,6.5 -3.61,4.34 -5.41,9.11 -5.41,14.33 0,6.89 3.83,10.32 11.51,10.32 4.49,0 7.93,-1.4 10.35,-4.19 4.01,-4.55 6.01,-9.78 6.01,-15.67 0,-3.37 -0.97,-6.1 -2.91,-8.17 -1.94,-2.1 -4.49,-3.13 -7.62,-3.13l0 0.01zm66.02 6.5l-1.7 4.13c-2.61,5.92 -6.35,8.87 -11.14,8.87 -2.46,0 -4.65,-0.85 -6.56,-2.55 -1.94,-1.67 -2.91,-3.61 -2.91,-5.83 0,-2.06 0.85,-4.83 2.58,-8.29l11.81 -24.05c2.92,-5.77 6.53,-8.65 10.87,-8.65 2.31,0 4.28,0.76 5.95,2.28 1.67,1.52 2.49,3.31 2.49,5.37 0,0.55 -0.18,1.7 -0.55,3.46 -0.24,1.31 -0.37,2.46 -0.37,3.49 0,3.73 1.4,7.56 4.22,11.45l5.1 7.04c5.19,7.17 7.8,14.12 7.8,20.83 0,7.47 -2.79,13.69 -8.38,18.7 -5.56,5.01 -12.51,7.53 -20.83,7.53l-18.58 0.01c-7.5,0 -11.24,-2.61 -11.24,-7.8 0,-3.58 1.34,-6.41 3.98,-8.44 2.67,-2.03 6.32,-3.07 10.99,-3.07l10.33 -0.01c8.29,0 12.42,-3.01 12.42,-9.02 0,-2.19 -0.79,-4.8 -2.34,-7.77l-3.94 -7.68zm109.16 0l-1.7 4.13c-2.61,5.92 -6.35,8.87 -11.14,8.87 -2.46,0 -4.65,-0.85 -6.56,-2.55 -1.94,-1.67 -2.91,-3.61 -2.91,-5.83 0,-2.06 0.85,-4.83 2.58,-8.29l11.81 -24.05c2.92,-5.77 6.53,-8.65 10.87,-8.65 2.31,0 4.28,0.76 5.95,2.28 1.67,1.52 2.49,3.31 2.49,5.37 0,0.55 -0.18,1.7 -0.55,3.46 -0.24,1.31 -0.36,2.46 -0.36,3.49 0,3.73 1.4,7.56 4.22,11.45l5.1 7.04c5.19,7.17 7.8,14.12 7.8,20.83 0,7.47 -2.79,13.69 -8.38,18.7 -5.56,5.01 -12.51,7.53 -20.83,7.53l-18.58 0.01c-7.5,0 -11.23,-2.61 -11.23,-7.8 0,-3.58 1.34,-6.41 3.98,-8.44 2.67,-2.03 6.32,-3.07 10.99,-3.07l10.31 -0.01c8.29,0 12.42,-3.01 12.42,-9.02 0,-2.19 -0.79,-4.8 -2.34,-7.77l-3.94 -7.68zm75.18 -25.45c8.59,0 15.67,2.73 21.19,8.17 5.56,5.47 8.32,12.39 8.32,20.8 0,6.35 -1.46,12.63 -4.34,18.89 -2.92,6.26 -6.68,11.24 -11.3,14.97 -3.1,2.43 -6.29,4.1 -9.56,5.04 -3.28,0.91 -7.89,1.37 -13.82,1.37 -9.69,0 -16.18,-1.15 -19.59,-3.46 -7.93,-5.47 -11.9,-13.51 -11.9,-24.17 0,-11.27 4.07,-21.01 12.18,-29.24 8.14,-8.23 17.73,-12.36 28.82,-12.36l0 -0.01zm-2.15 18.95c-4.37,0 -8.35,2.16 -11.93,6.5 -3.61,4.34 -5.4,9.11 -5.4,14.33 0,6.89 3.83,10.32 11.51,10.32 4.49,0 7.93,-1.4 10.35,-4.19 4.01,-4.55 6.01,-9.78 6.01,-15.67 0,-3.37 -0.97,-6.1 -2.91,-8.17 -1.94,-2.1 -4.49,-3.13 -7.62,-3.13l-0.01 0.01zm102.29 30.97l10.69 0c7.5,0 11.23,2.64 11.23,7.89 0,3.58 -1.34,6.41 -3.98,8.41 -2.67,2 -6.35,3.01 -10.99,3.01l-18.58 0.01c-3.64,0 -6.71,-1.09 -9.2,-3.28 -2.46,-2.22 -3.7,-4.98 -3.7,-8.29 0,-2 0.85,-5.04 2.52,-9.08l7.96 -19.4c0.85,-2 1.31,-3.64 1.37,-4.89 0.06,-1.43 -0.52,-2.64 -1.73,-3.64 -1.21,-1 -2.79,-1.52 -4.68,-1.52 -6.13,0 -11.08,4.59 -14.82,13.79l-10.51 25.84c-3.16,7.83 -7.86,11.75 -14.09,11.75 -2.58,0 -4.74,-0.76 -6.53,-2.31 -1.79,-1.55 -2.67,-3.46 -2.67,-5.71 0,-1.67 0.49,-3.64 1.43,-5.98l0.97 -2.4 17.98 -44.36c2.34,-5.77 6.26,-8.65 11.84,-8.65 4.59,0 7.83,2.03 9.81,6.07 6.35,-4.77 12.42,-7.17 18.16,-7.17 5.59,0 10.2,1.61 13.82,4.8 3.61,3.22 5.44,7.29 5.44,12.21 0,2.73 -0.67,5.71 -1.97,8.99l-9.77 23.91zm47.52 -29.33l-3.01 7.5c-2.73,6.65 -6.29,9.99 -10.66,9.99 -2.64,0 -4.86,-0.79 -6.62,-2.4 -1.79,-1.61 -2.67,-3.61 -2.67,-5.98 0,-1.37 0.64,-3.67 1.94,-6.95l10.05 -24.87c2.4,-5.98 5.83,-8.99 10.29,-8.99 4.37,0 7.04,2.06 8.08,6.23l0.7 2.76c0.36,1.43 0.88,2.34 1.61,2.67 0.7,0.36 2.43,0.55 5.22,0.55l20.85 0c7.74,0 11.6,2.73 11.6,8.2 0,7.53 -4.92,11.3 -14.73,11.3l-0.97 0.88c-9.32,9.08 -14,16.09 -14,21.04 0,4.95 2.67,7.41 8.02,7.41l11.23 -0.01c7.56,0 11.36,2.61 11.36,7.8 0,3.64 -1.34,6.5 -3.98,8.5 -2.64,2 -6.35,3.01 -11.11,3.01l-17.47 0.01c-5.89,0 -10.72,-2.03 -14.48,-6.13 -3.73,-4.1 -5.62,-9.44 -5.62,-15.97 0,-4.16 1,-8.2 3.01,-12.12 2,-3.92 5.56,-8.72 10.63,-14.42l-9.27 -0.01zm76.86 29.33l10.05 0c7.44,0 11.14,2.64 11.14,7.89 0,3.58 -1.31,6.41 -3.95,8.41 -2.61,2 -6.29,3.01 -11.02,3.01l-14.15 0.01c-5.22,0 -9.32,-1.06 -12.3,-3.22 -3.01,-2.13 -4.49,-5.04 -4.49,-8.71 0,-1.97 0.64,-4.46 1.88,-7.47l14.7 -36.16 0.97 -2.52c2.73,-6.71 7.11,-10.05 13.18,-10.05 2.49,0 4.65,0.82 6.47,2.49 1.79,1.67 2.7,3.67 2.7,5.98 0,1.91 -0.79,4.83 -2.4,8.74l-12.78 31.6zm11.72 -77.24c3.46,0 6.38,1.21 8.78,3.61 2.4,2.4 3.61,5.31 3.61,8.78 0,3.43 -1.21,6.38 -3.61,8.78 -2.4,2.4 -5.31,3.61 -8.78,3.61 -3.43,0 -6.38,-1.21 -8.78,-3.61 -2.4,-2.4 -3.61,-5.34 -3.61,-8.78 0,-3.46 1.22,-6.38 3.61,-8.78 2.4,-2.4 5.34,-3.61 8.78,-3.61zm42.54 52.77l-1.7 4.13c-2.61,5.92 -6.35,8.87 -11.14,8.87 -2.46,0 -4.65,-0.85 -6.56,-2.55 -1.94,-1.67 -2.91,-3.61 -2.91,-5.83 0,-2.06 0.85,-4.83 2.58,-8.29l11.81 -24.05c2.91,-5.77 6.53,-8.65 10.87,-8.65 2.31,0 4.28,0.76 5.95,2.28 1.67,1.52 2.49,3.31 2.49,5.37 0,0.55 -0.18,1.7 -0.55,3.46 -0.24,1.31 -0.36,2.46 -0.36,3.49 0,3.73 1.4,7.56 4.22,11.45l5.1 7.04c5.19,7.17 7.8,14.12 7.8,20.83 0,7.47 -2.79,13.69 -8.38,18.7 -5.56,5.01 -12.51,7.53 -20.83,7.53l-18.58 0.01c-7.5,0 -11.23,-2.61 -11.23,-7.8 0,-3.58 1.34,-6.41 3.98,-8.44 2.67,-2.03 6.32,-3.07 10.99,-3.07l10.32 -0.01c8.29,0 12.42,-3.01 12.42,-9.02 0,-2.19 -0.79,-4.8 -2.34,-7.77l-3.95 -7.68zm94.74 24.47l9.81 0c7.5,0 11.27,2.61 11.27,7.8 0,3.58 -1.34,6.41 -4.01,8.44 -2.7,2.03 -6.38,3.07 -11.08,3.07l-11.4 0.01c-5.1,0 -8.59,-1.97 -10.41,-5.95 -4.46,3.98 -8.74,5.95 -12.9,5.95l-10.15 0c-6.53,0 -11.81,-2.34 -15.85,-6.98 -4.01,-4.65 -6.01,-10.72 -6.01,-18.25 0,-11.39 3.95,-21.56 11.81,-30.55 7.86,-8.96 16.76,-13.45 26.66,-13.45 7.62,0 13.15,2.58 16.67,7.77 2.98,-4.46 6.86,-6.68 11.66,-6.68 2.61,0 4.8,0.82 6.56,2.49 1.73,1.67 2.61,3.73 2.61,6.16 0,1.67 -0.49,3.67 -1.43,5.98l-0.97 2.4 -12.84 31.79zm-32.28 0.37l2.22 0c4.89,0 8.14,-2 9.75,-5.98l6.26 -15.39c0.82,-2.03 1.24,-3.7 1.24,-5.07 0,-1.61 -0.79,-3.01 -2.37,-4.19 -1.58,-1.19 -3.49,-1.79 -5.68,-1.79 -4.37,0 -8.62,2.52 -12.72,7.56 -4.13,5.07 -6.19,10.29 -6.19,15.7 0,6.1 2.49,9.17 7.5,9.17l-0.01 -0.01zm86.3 -24.84l-1.7 4.13c-2.61,5.92 -6.35,8.87 -11.14,8.87 -2.46,0 -4.65,-0.85 -6.56,-2.55 -1.94,-1.67 -2.91,-3.61 -2.91,-5.83 0,-2.06 0.85,-4.83 2.58,-8.29l11.81 -24.05c2.92,-5.77 6.53,-8.65 10.87,-8.65 2.31,0 4.28,0.76 5.95,2.28 1.67,1.52 2.49,3.31 2.49,5.37 0,0.55 -0.18,1.7 -0.55,3.46 -0.24,1.31 -0.36,2.46 -0.36,3.49 0,3.73 1.4,7.56 4.22,11.45l5.1 7.04c5.19,7.17 7.8,14.12 7.8,20.83 0,7.47 -2.79,13.69 -8.38,18.7 -5.56,5.01 -12.51,7.53 -20.83,7.53l-18.58 0.01c-7.5,0 -11.23,-2.61 -11.23,-7.8 0,-3.58 1.34,-6.41 3.98,-8.44 2.67,-2.03 6.32,-3.07 10.99,-3.07l10.31 -0.01c8.29,0 12.42,-3.01 12.42,-9.02 0,-2.19 -0.79,-4.8 -2.34,-7.77l-3.94 -7.68zm51.37 21.38c3.37,0 6.26,1.21 8.68,3.64 2.43,2.43 3.64,5.31 3.64,8.68 0,3.46 -1.21,6.38 -3.64,8.81 -2.43,2.43 -5.31,3.64 -8.68,3.64 -3.46,0 -6.38,-1.21 -8.8,-3.64 -2.43,-2.43 -3.64,-5.34 -3.64,-8.81 0,-3.37 1.21,-6.26 3.64,-8.68 2.43,-2.43 5.34,-3.64 8.8,-3.64zm45.46 0c3.37,0 6.26,1.21 8.68,3.64 2.43,2.43 3.64,5.31 3.64,8.68 0,3.46 -1.21,6.38 -3.64,8.81 -2.43,2.43 -5.31,3.64 -8.68,3.64 -3.46,0 -6.38,-1.21 -8.81,-3.64 -2.43,-2.43 -3.64,-5.34 -3.64,-8.81 0,-3.37 1.21,-6.26 3.64,-8.68 2.43,-2.43 5.34,-3.64 8.81,-3.64zm45.46 0c3.37,0 6.26,1.21 8.68,3.64 2.43,2.43 3.64,5.31 3.64,8.68 0,3.46 -1.21,6.38 -3.64,8.81 -2.43,2.43 -5.31,3.64 -8.68,3.64 -3.46,0 -6.38,-1.21 -8.81,-3.64 -2.43,-2.43 -3.64,-5.34 -3.64,-8.81 0,-3.37 1.21,-6.26 3.64,-8.68 2.43,-2.43 5.34,-3.64 8.81,-3.64z"/>
  <path id="path11" class="fil0" d="M46.31 376.85l-0.68 407.15c10.18,220.77 167.02,384.06 373.67,385.74 200.76,1.64 366.99,-166.28 375.53,-378.89 0.2,-78.76 -89.11,-78.52 -89.49,-1.01 -10.01,159.79 -134.3,285.32 -285.79,284.09 -151.49,-1.23 -275.15,-128.78 -284.36,-288.73l1.02 -407.61c0.2,-80.89 -89.74,-81.58 -89.88,-0.73l-0.02 -0.01zm375.4 -3.85l-0.46 189.38c-0.2,80.8 89.29,81.62 89.5,0.73l0.66 -188.81c-0.82,-56.74 43.89,-103.2 96.29,-102.77 51.98,0.42 95.72,46.54 95.58,102.47 -0.2,80.82 91.13,81.62 89.88,0.73 -1.66,-108.92 -82.49,-198.54 -185.22,-199.37 -102.57,-0.84 -185.95,87.66 -186.22,197.65l-0.01 -0.01zm-133.12 -282.51l-1.18 468.74c-0.2,80.86 102.08,81.73 102.29,0.83l1.18 -468.74c0.2,-80.89 -102.08,-81.7 -102.29,-0.83zm-122.08 132.52l-1.18 468.74c-0.2,80.86 100.17,81.71 100.37,0.82l1.18 -468.74c0.2,-80.89 -100.17,-81.68 -100.37,-0.82z"/>
  <g id="g16">
   <path id="path13" class="fil2 str0" d="M716.41 702.93c-6.37,-7.53 -11.27,-17.31 -14.87,-26.84 -3.61,-9.53 -5.94,-18.81 -7.27,-32.38 -1.33,-13.57 -1.67,-31.42 -4.68,-46.97 -3.01,-15.55 -8.7,-28.81 -16.34,-45.53 -7.64,-16.72 -17.22,-36.9 -17.08,-52.54 0.14,-15.63 10.01,-26.71 18.87,-31.82 8.86,-5.11 16.71,-4.25 24.63,-3.1 7.92,1.15 15.92,2.6 27.76,-0.74 11.83,-3.33 27.5,-11.44 39.26,-13.33 11.76,-1.88 19.62,2.45 24.65,5.36 5.03,2.9 7.23,4.37 3.32,6.3 -3.92,1.93 -13.95,4.32 -11.77,3.38 2.18,-0.93 16.56,-5.18 27.7,-5.93 11.14,-0.75 19.03,2 25.84,10.04 6.81,8.04 12.54,21.37 11.59,35.09 -0.95,13.72 -8.58,27.83 -13.66,38.99 -5.08,11.16 -7.6,19.38 -10.09,31.4 -2.49,12.03 -4.96,27.86 -7.11,42.15 -2.15,14.28 -3.98,27 -6.2,37.31 -2.22,10.31 -4.83,18.22 -8.55,25.9 -3.72,7.68 -8.54,15.13 -13.07,19.29 -1.63,1.5 -3.23,2.57 -4.79,3.28 -0.45,0.2 -0.9,0.38 -1.35,0.52 -2.3,0.75 -4.53,0.75 -6.74,0.21 -4.12,-1.01 -8.12,-3.9 -9.91,-9.71 -1.8,-5.81 -1.39,-14.55 -1.06,-24.79 0.32,-10.24 0.57,-21.98 0.94,-29.92 0.37,-7.95 0.86,-12.11 0.24,-16.02 -0.61,-3.91 -2.32,-7.58 -3.18,-9.5 -0.85,-1.92 -0.85,-2.09 1.36,-2.95 2.2,-0.86 6.6,-2.39 10.87,-1.94 4.28,0.45 8.43,2.9 8.56,2.9 0.12,0 -3.79,-2.44 -8.44,-2.81 -4.65,-0.37 -10.03,1.34 -14,4 -3.97,2.65 -6.54,6.24 -8.65,10.9 -2.11,4.66 -3.76,10.39 -4.82,17.17 -1.06,6.77 -1.54,14.59 -0.89,23.63 0.64,9.03 2.4,19.29 3.54,27.34 1.14,8.05 1.66,13.91 -0.53,18.5 -2.18,4.59 -7.07,7.93 -13.45,6.96 -6.37,-0.97 -14.23,-6.25 -20.61,-13.77l-0.02 -0.03z" sodipodi:nodetypes="cccssccccccsccsscccsccssscccccscscccccsscc"/>
   <path id="_1" class="fil3" d="M716.41 702.93c-6.37,-7.53 -11.27,-17.31 -14.87,-26.84 -3.61,-9.53 -5.94,-18.81 -7.27,-32.38 -1.33,-13.57 -1.67,-31.42 -4.68,-46.97 -3.01,-15.55 -8.7,-28.81 -16.34,-45.53 -7.64,-16.72 -17.22,-36.9 -17.08,-52.54 0.14,-15.63 10.01,-26.71 18.87,-31.82 8.86,-5.11 16.71,-4.25 24.63,-3.1 7.92,1.15 15.92,2.6 27.76,-0.74 11.83,-3.33 27.5,-11.44 39.26,-13.33 11.76,-1.88 19.62,2.45 24.65,5.36 5.03,2.9 7.23,4.37 3.32,6.3 -3.92,1.93 -13.95,4.32 -11.77,3.38 2.18,-0.93 16.56,-5.18 27.7,-5.93 11.14,-0.75 19.03,2 25.84,10.04 6.81,8.04 12.54,21.37 11.59,35.09 -0.95,13.72 -8.58,27.83 -13.66,38.99 -5.08,11.16 -7.6,19.38 -10.09,31.4 -2.49,12.03 -4.96,27.86 -7.11,42.15 -2.15,14.28 -3.98,27 -6.2,37.31 -2.22,10.31 -4.83,18.22 -8.55,25.9 -3.72,7.68 -8.54,15.13 -13.07,19.29 -4.53,4.16 -8.76,5.02 -12.88,4.01 -4.12,-1.01 -8.12,-3.9 -9.91,-9.71 -1.8,-5.81 -1.39,-14.55 -1.06,-24.79 0.32,-10.24 0.57,-21.98 0.94,-29.92 0.37,-7.95 0.86,-12.11 0.24,-16.02 -0.61,-3.91 -2.32,-7.58 -3.18,-9.5 -0.85,-1.92 -0.85,-2.09 1.36,-2.95 2.2,-0.86 6.6,-2.39 10.87,-1.94 4.28,0.45 8.43,2.9 8.56,2.9 0.12,0 -3.79,-2.44 -8.44,-2.81 -4.65,-0.37 -10.03,1.34 -14,4 -3.97,2.65 -6.54,6.24 -8.65,10.9 -2.11,4.66 -3.76,10.39 -4.82,17.17 -1.06,6.77 -1.54,14.59 -0.89,23.63 0.64,9.03 2.4,19.29 3.54,27.34 1.14,8.05 1.66,13.91 -0.53,18.5 -2.18,4.59 -7.07,7.93 -13.45,6.96 -6.37,-0.97 -14.23,-6.25 -20.61,-13.77l-0.02 -0.03z"/>
  </g>
  <path id="path18" class="fil1" d="M1280.77 208.59l-68.54 0 0 89.75 68.54 0 0 -30.52 18.53 4.58 0 15.01c0,11.73 -1.66,19.69 -5.02,23.92 -3.36,4.23 -9.73,6.35 -19.07,6.35l-57.66 0c-9.34,0 -15.67,-2.06 -18.95,-6.14 -3.28,-4.08 -4.9,-12.09 -4.9,-24.12l0 -67.45c0,-11.89 1.66,-19.94 4.98,-24.12 3.32,-4.18 9.61,-6.3 18.87,-6.3l57.66 0.01c9.34,0 15.71,2.17 19.07,6.45 3.36,4.28 5.02,12.24 5.02,23.97l0 12.14 -18.53 3.98 0 -27.51zm39.1 109.09l0 -128.12 18.52 0 0 108.78 76.42 0 0 19.34 -94.94 0zm123.15 0l-18.53 0 0 -127.82 18.53 0 0 127.82zm-24.78 -144.44l23.62 -51.37 20.15 0 -31.77 51.37 -12 0zm66.65 42c0.46,3.73 0.77,7.5 1,11.38 0.23,3.83 0.35,7.65 0.35,11.48l0 79.57 -17.13 0.01 0 -128.12 14.12 0 72.05 83.7c2.08,2.37 4.09,4.93 6.02,7.81 1.93,2.87 3.82,6.09 5.71,9.77 -0.54,-3.88 -0.93,-7.76 -1.2,-11.68 -0.27,-3.93 -0.39,-8.01 -0.39,-12.24l0.02 -77.36 17.13 0 0 128.12 -12.66 0 -73.52 -84.86c-2.55,-3.17 -4.75,-6.14 -6.6,-8.96 -1.85,-2.77 -3.47,-5.64 -4.9,-8.61l0 -0.01zm142.29 102.44l-18.52 0 0 -127.82 18.52 0 0 127.82zm110.85 -109.09l-68.55 0 0 89.75 68.55 0 0 -30.52 18.52 4.58 0 15.01c0,11.73 -1.66,19.69 -5.02,23.92 -3.36,4.23 -9.73,6.35 -19.06,6.35l-57.66 0c-9.34,0 -15.67,-2.06 -18.95,-6.14 -3.28,-4.08 -4.9,-12.09 -4.9,-24.12l0 -67.45c0,-11.89 1.66,-19.94 4.98,-24.12 3.32,-4.18 9.61,-6.3 18.87,-6.3l57.66 0.01c9.34,0 15.71,2.17 19.06,6.45 3.36,4.28 5.02,12.24 5.02,23.97l0 12.14 -18.52 3.98 0 -27.51zm23.11 109.09l56.73 -128.12 16.95 0 58.08 128.12 -20.11 0 -12.77 -29.92 -67.81 0 -12.54 29.92 -18.53 0zm38.87 -48.35l52.1 0 -26.09 -60.99 -26.01 60.99zm225.11 29.01l81.98 0 0 -89.75 -81.98 0 0 89.75zm-18.52 -78.37c0,-11.73 1.7,-19.74 5.09,-24.02 3.4,-4.28 9.69,-6.4 18.99,-6.4l70.86 0.01c9.3,0 15.59,2.12 18.99,6.4 3.4,4.28 5.09,12.29 5.09,24.02l0 67.43c0,11.73 -1.66,19.69 -5.02,23.92 -3.36,4.23 -9.73,6.35 -19.07,6.35l-70.85 0c-9.42,0 -15.79,-2.11 -19.1,-6.3 -3.32,-4.18 -4.98,-12.14 -4.98,-23.97l0 -67.44zm205.36 -11.38l-35.94 0 0 89.75 35.94 0c15.98,0 27.32,-3.53 34.08,-10.58 6.75,-7 10.11,-18.58 10.11,-34.75 0,-15.71 -3.4,-27.09 -10.23,-33.99 -6.83,-6.95 -18.14,-10.43 -33.96,-10.43zm2.04 -19.03c9.34,0 17.17,0.81 23.54,2.42 6.37,1.66 11.62,4.13 15.79,7.45 6.68,5.54 11.92,13.04 15.71,22.51 3.74,9.52 5.63,19.94 5.63,31.37 0,21.55 -5.02,37.67 -15.01,48.35 -10.03,10.68 -25.24,16.01 -45.66,16.01l-56.5 0.01 0 -128.12 56.5 0zm102.04 108.78l81.98 0 0 -89.75 -81.98 0 0 89.75zm-18.52 -78.37c0,-11.73 1.7,-19.74 5.09,-24.02 3.4,-4.28 9.69,-6.4 18.99,-6.4l70.86 0.01c9.3,0 15.59,2.12 18.99,6.4 3.4,4.28 5.09,12.29 5.09,24.02l0 67.43c0,11.73 -1.66,19.69 -5.02,23.92 -3.36,4.23 -9.73,6.35 -19.07,6.35l-70.85 0c-9.42,0 -15.79,-2.11 -19.1,-6.3 -3.32,-4.18 -4.98,-12.14 -4.98,-23.97l0 -67.44zm159.04 -4.73c0.46,3.73 0.77,7.5 1,11.38 0.23,3.83 0.35,7.65 0.35,11.48l0 79.57 -17.13 0.01 0 -128.12 14.12 0 72.05 83.7c2.08,2.37 4.09,4.93 6.02,7.81 1.93,2.87 3.82,6.09 5.71,9.77 -0.54,-3.88 -0.93,-7.76 -1.2,-11.68 -0.27,-3.93 -0.39,-8.01 -0.39,-12.24l0 -77.36 17.15 0 0 128.12 -12.66 0 -73.52 -84.86c-2.55,-3.17 -4.75,-6.14 -6.6,-8.96 -1.85,-2.77 -3.47,-5.64 -4.9,-8.61l0 -0.01zm171.47 -6.65l0 109.08 -18.52 0.01 0 -109.08 -46.31 -0.01 0 -19.04 111.38 0.01 0 19.04 -46.55 -0.01zm71.67 89.75l81.97 0 0 -89.75 -81.97 0 0 89.75zm-18.52 -78.37c0,-11.73 1.7,-19.74 5.09,-24.02 3.4,-4.28 9.69,-6.4 18.99,-6.4l70.86 0.01c9.3,0 15.59,2.12 18.99,6.4 3.4,4.28 5.09,12.29 5.09,24.02l0 67.43c0,11.73 -1.66,19.69 -5.02,23.92 -3.36,4.23 -9.73,6.35 -19.06,6.35l-70.86 0c-9.42,0 -15.79,-2.11 -19.1,-6.3 -3.32,-4.18 -4.98,-12.14 -4.98,-23.97l0 -67.44zm143.26 97.71l0 -128.12 18.52 0 0 108.78 76.42 0 0 19.34 -94.94 0zm121.3 -19.34l81.97 0 0 -89.75 -81.97 0 0 89.75zm-18.53 -78.37c0,-11.73 1.7,-19.74 5.09,-24.02 3.4,-4.28 9.69,-6.4 18.99,-6.4l70.86 0.01c9.3,0 15.59,2.12 18.99,6.4 3.4,4.28 5.09,12.29 5.09,24.02l0 67.43c0,11.73 -1.66,19.69 -5.02,23.92 -3.36,4.23 -9.73,6.35 -19.07,6.35l-70.85 0c-9.42,0 -15.79,-2.11 -19.1,-6.3 -3.32,-4.18 -4.98,-12.14 -4.98,-23.97l0 -67.44zm44 -46.73l23.62 -51.37 20.14 0 -31.76 51.37 -12 0zm193.04 35.35l-77.57 0 0 89.75 77.57 0 0 -34.75 -40.06 0 0 -17.53 58.59 0 0 41.4c0,11.68 -1.66,19.64 -5.02,23.87 -3.36,4.23 -9.73,6.35 -19.06,6.35l-66.5 0c-9.3,0 -15.67,-2.06 -19.03,-6.24 -3.36,-4.18 -5.02,-12.19 -5.02,-23.97l0 -67.43c0,-11.73 1.7,-19.74 5.09,-24.02 3.4,-4.28 9.69,-6.45 18.95,-6.45l66.5 -0.01c9.11,0 15.4,2.12 18.87,6.35 3.47,4.23 5.21,11.68 5.21,22.36l0 3.68 -18.52 4.18 0 -17.54zm58.78 109.09l-18.52 0 0 -127.82 18.52 0 0 127.82zm110.84 -109.09l-68.54 0 0 89.75 68.54 0 0 -30.52 18.53 4.58 0 15.01c0,11.73 -1.66,19.69 -5.02,23.92 -3.36,4.23 -9.73,6.35 -19.07,6.35l-57.66 0c-9.34,0 -15.67,-2.06 -18.95,-6.14 -3.28,-4.08 -4.9,-12.09 -4.9,-24.12l0 -67.45c0,-11.89 1.66,-19.94 4.98,-24.12 3.32,-4.18 9.61,-6.3 18.87,-6.3l57.66 0.01c9.34,0 15.71,2.17 19.07,6.45 3.36,4.28 5.02,12.24 5.02,23.97l0 12.14 -18.53 3.98 0 -27.51zm23.12 109.09l56.73 -128.12 16.94 0 58.08 128.12 -20.1 0 -12.77 -29.92 -67.81 0 -12.54 29.92 -18.53 0zm38.86 -48.35l52.1 0 -26.09 -60.99 -26.01 60.99z"/>
  <path id="path20" class="fil4" d="M2327.65 386.08c0.47,-3.76 2,-6.47 4.58,-8.11 2.59,-1.65 5.06,-2.47 7.4,-2.47 31.97,0 61.95,-1.06 89.92,-3.18 27.98,-2.11 49.96,-3.17 65.94,-3.17 39.97,0 73.47,4 100.5,11.99 27.04,7.99 48.9,20.45 65.59,37.38 16.69,16.93 28.56,38.79 35.62,65.59 7.05,26.8 10.58,59.01 10.58,96.62 0,38.09 -3.88,75.35 -11.64,111.79 -7.76,36.44 -21.27,68.77 -40.55,96.98 -19.28,28.21 -45.26,50.9 -77.93,68.06 -32.68,17.16 -73.94,25.74 -123.78,25.74 -23.04,0 -44.08,-0.47 -63.12,-1.41 -19.04,-0.94 -35.38,-3.76 -49.02,-8.47 -13.63,-4.7 -24.21,-11.75 -31.74,-21.16 -7.52,-9.4 -11.28,-22.33 -11.28,-38.79 0,-6.11 0.35,-15.28 1.06,-27.51 0.71,-12.23 1.65,-26.8 2.82,-43.73 1.17,-16.93 2.59,-35.62 4.23,-56.07 1.65,-20.45 3.41,-41.96 5.29,-64.53 3.76,-46.55 6.7,-83.69 8.82,-111.43 2.12,-27.74 3.53,-49.49 4.23,-65.24 0.71,-15.75 1.18,-27.62 1.41,-35.62 0.23,-7.99 0.59,-15.75 1.06,-23.27l0.01 0.01zm131.19 385.79c26.33,0 47.37,-5.64 63.12,-16.93 15.75,-11.29 27.86,-25.63 36.32,-43.02 8.46,-17.4 14.1,-36.44 16.93,-57.13 2.82,-20.69 4.23,-40.2 4.23,-58.54 0,-19.75 -1.29,-37.03 -3.88,-51.84 -2.59,-14.81 -7.05,-27.15 -13.4,-37.03 -6.35,-9.87 -15.16,-17.28 -26.45,-22.22 -11.28,-4.94 -25.39,-7.41 -42.32,-7.41 -5.17,0 -11.76,0.24 -19.75,0.7 -7.99,0.47 -17.63,1.18 -28.92,2.12 -0.94,17.4 -2.12,37.97 -3.53,61.71 -1.41,23.74 -2.94,48.67 -4.59,74.76 -1.65,26.09 -3.41,52.43 -5.29,78.99 -1.88,26.57 -3.76,51.13 -5.64,73.7 7.05,0.94 13.4,1.53 19.04,1.76 5.64,0.23 10.34,0.35 14.1,0.35l0.03 0.03zm382.96 104.38c-26.33,0 -45.14,-5.17 -56.42,-15.52 -11.28,-10.34 -16.93,-25.15 -16.93,-44.43 0,-9.4 0.7,-25.51 2.11,-48.31 1.41,-22.8 3.29,-48.78 5.64,-77.93 2.35,-29.15 4.7,-59.95 7.05,-92.39 2.35,-32.44 4.7,-63.01 7.05,-91.69 2.35,-28.68 4.23,-53.84 5.64,-75.47 1.41,-21.63 2.11,-36.44 2.11,-44.43 0,-7.05 3.76,-10.58 11.28,-10.58l248.29 0c2.82,0 5.41,0.7 7.76,2.11 2.35,1.41 3.53,4 3.53,7.76l-2.82 41.61c-0.94,14.11 -4.82,25.51 -11.64,34.21 -6.82,8.7 -20.81,13.05 -41.96,13.05l-97.34 0 -7.05 99.45 100.15 -0.01c2.82,0 5.41,0.7 7.76,2.12 2.35,1.41 3.53,4 3.53,7.76l-2.82 41.61c-0.94,14.1 -4.82,25.51 -11.64,34.21 -6.82,8.7 -20.8,13.05 -41.96,13.05l-61.37 -0.01 -7.76 105.09 155.17 0c2.82,0 5.41,0.82 7.76,2.47 2.35,1.65 3.52,4.11 3.52,7.4l-2.82 41.61c-0.94,14.11 -4.82,25.51 -11.64,34.21 -6.82,8.7 -20.81,13.05 -41.96,13.05l-162.22 0zm595.97 0c-19.28,0 -33.62,-2.82 -43.02,-8.47 -9.4,-5.64 -16.22,-12.69 -20.45,-21.16 -24.45,-50.31 -47.37,-98.5 -68.77,-144.58 -21.39,-46.08 -43.14,-92.63 -65.24,-139.65 0.47,50.78 1.17,101.33 2.11,151.63 0.94,50.31 1.88,100.85 2.82,151.64 0,7.05 -3.76,10.58 -11.28,10.58l-38.79 0.01c-26.8,0 -45.73,-5.29 -56.77,-15.87 -11.05,-10.58 -16.57,-26.21 -16.57,-46.9 0,-5.64 0.35,-15.16 1.06,-28.56 0.71,-13.4 1.76,-29.27 3.17,-47.61 1.41,-18.34 2.94,-38.44 4.59,-60.3 1.64,-21.86 3.41,-44.08 5.29,-66.65 2.82,-35.73 5.17,-65.35 7.05,-88.87 1.88,-23.51 3.41,-43.38 4.59,-59.6 1.17,-16.22 2,-30.09 2.47,-41.61 0.47,-11.52 0.94,-22.92 1.41,-34.2 0,-7.05 3.76,-10.58 11.28,-10.58l56.41 0c15.52,0 28.21,1.76 38.09,5.29 9.87,3.53 17.98,8.34 24.33,14.46 6.35,6.11 11.4,13.05 15.16,20.8 3.76,7.76 7.29,15.87 10.58,24.33 11.28,29.15 21.28,54.31 29.97,75.47 8.7,21.16 16.34,39.73 22.92,55.72 6.58,15.99 12.34,29.86 17.28,41.61 4.94,11.76 9.52,22.57 13.75,32.44 4.23,9.87 8.46,19.39 12.7,28.56 4.23,9.17 8.7,19.16 13.4,29.98 0,-27.74 -0.12,-56.31 -0.35,-85.69 -0.23,-29.39 -0.47,-58.07 -0.7,-86.04 -0.23,-27.98 -0.47,-54.89 -0.71,-80.75 -0.23,-25.86 -0.35,-49.14 -0.35,-69.82 0,-4.23 4,-6.35 11.99,-6.35l38.79 -0.01c15.52,0 27.86,1.53 37.03,4.58 9.17,3.06 16.34,7.52 21.51,13.4 5.17,5.88 8.58,13.05 10.23,21.51 1.65,8.46 2.47,18.1 2.47,28.91 0,11.76 -0.7,29.74 -2.12,53.96 -1.41,24.22 -3.06,51.37 -4.94,81.46 -1.88,30.09 -4,61.24 -6.35,93.45 -2.35,32.21 -4.59,61.95 -6.7,89.22 -2.11,27.27 -4,50.43 -5.64,69.47 -1.65,19.04 -2.7,30.21 -3.17,33.5 0,3.76 -1.29,6.58 -3.88,8.46 -2.59,1.88 -5.52,2.82 -8.82,2.82l-57.83 0.01zm397.78 -402.01l-26.8 391.43c-0.47,7.05 -3.06,10.58 -7.76,10.58l-38.79 0c-26.33,0 -45.14,-5.17 -56.42,-15.52 -11.28,-10.34 -16.93,-25.15 -16.93,-44.43 0,-7.05 0.35,-17.63 1.06,-31.74 0.7,-14.11 1.76,-30.68 3.18,-49.72 1.41,-19.04 2.94,-39.73 4.58,-62.06 1.65,-22.34 3.41,-44.9 5.29,-67.71 1.88,-22.81 3.64,-45.49 5.29,-68.06 1.65,-22.57 3.18,-43.49 4.59,-62.77l-112.86 0c-5.17,0 -7.76,-3.29 -7.76,-9.87l2.11 -39.5c0.47,-6.11 1.53,-12.11 3.17,-17.98 1.65,-5.88 4.35,-11.17 8.11,-15.87 3.76,-4.7 8.58,-8.46 14.46,-11.28 5.88,-2.82 13.05,-4.23 21.51,-4.23l315.27 -0.01c2.82,0 5.41,0.7 7.76,2.11 2.35,1.41 3.53,4 3.53,7.76l-2.82 41.61c-0.94,14.11 -4.82,25.51 -11.64,34.21 -6.82,8.7 -20.81,13.05 -41.97,13.05l-76.16 0z"/>
 </g>
</svg>
